<?xml version="1.0" encoding="utf-8"?>
<!-- Generator: Adobe Illustrator 25.2.3, SVG Export Plug-In . SVG Version: 6.00 Build 0)  -->
<svg version="1.1" id="Capa_1" xmlns="http://www.w3.org/2000/svg" xmlns:xlink="http://www.w3.org/1999/xlink" x="0px" y="0px"
	 viewBox="0 0 51 50.94" style="enable-background:new 0 0 51 50.94;" xml:space="preserve">
<style type="text/css">
	.st0{fill:#F2E7F9;stroke:#6A3381;}
	.st1{fill-rule:evenodd;clip-rule:evenodd;fill:#6A3381;}
</style>
<circle class="st0" cx="25.5" cy="25.47" r="24.5"/>
<path class="st1" d="M32.64,27.85c-0.36-0.18-2.14-1.05-2.47-1.17c-0.33-0.12-0.57-0.18-0.81,0.18c-0.24,0.36-0.93,1.17-1.14,1.41
	c-0.21,0.24-0.42,0.27-0.78,0.09c-0.36-0.18-1.52-0.56-2.9-1.78c-1.07-0.95-1.8-2.13-2.01-2.49c-0.21-0.36-0.02-0.55,0.16-0.73
	c0.16-0.16,0.36-0.42,0.54-0.63c0.18-0.21,0.24-0.36,0.36-0.6c0.12-0.24,0.06-0.45-0.03-0.63c-0.09-0.18-0.81-1.95-1.11-2.67
	c-0.29-0.7-0.59-0.6-0.81-0.62c-0.21-0.01-0.45-0.01-0.69-0.01s-0.63,0.09-0.96,0.45c-0.33,0.36-1.26,1.23-1.26,3
	c0,1.77,1.29,3.47,1.47,3.71c0.18,0.24,2.54,3.87,6.16,5.42c0.86,0.37,1.53,0.59,2.06,0.76c0.86,0.27,1.65,0.24,2.27,0.14
	c0.69-0.1,2.13-0.87,2.44-1.71c0.3-0.84,0.3-1.56,0.21-1.71C33.25,28.12,33.01,28.03,32.64,27.85L32.64,27.85z M26.06,36.79
	L26.06,36.79c-2.15,0-4.26-0.57-6.11-1.67l-0.44-0.26l-4.54,1.19l1.21-4.41l-0.29-0.45c-1.2-1.9-1.84-4.11-1.83-6.36
	c0-6.59,5.39-11.94,12.01-11.94c3.21,0,6.22,1.24,8.48,3.5c1.12,1.11,2,2.42,2.61,3.88c0.6,1.45,0.91,3.01,0.91,4.57
	C38.06,31.43,32.68,36.79,26.06,36.79z M36.27,14.68c-1.34-1.34-2.93-2.4-4.68-3.13c-1.75-0.72-3.63-1.09-5.53-1.09
	c-7.96,0-14.44,6.45-14.44,14.37c0,2.53,0.66,5,1.93,7.18l-2.05,7.45l7.65-2c2.12,1.15,4.49,1.75,6.9,1.75h0.01
	c7.96,0,14.44-6.45,14.44-14.37c0.01-1.89-0.36-3.76-1.09-5.5C38.68,17.6,37.62,16.02,36.27,14.68z"/>
</svg>
