<?xml version="1.0" encoding="utf-8"?>
<!-- Generator: Adobe Illustrator 25.2.3, SVG Export Plug-In . SVG Version: 6.00 Build 0)  -->
<svg version="1.1" id="Capa_1" xmlns="http://www.w3.org/2000/svg" xmlns:xlink="http://www.w3.org/1999/xlink" x="0px" y="0px"
	 viewBox="0 0 30.34 22.72" style="enable-background:new 0 0 30.34 22.72;" xml:space="preserve">
<style type="text/css">
	.st0{fill:#FFFFFF;}
</style>
<path class="st0" d="M30.34,11.26c0-0.08,0-0.16,0-0.27c0-0.28-0.01-0.6-0.02-0.94c-0.03-0.98-0.07-1.95-0.15-2.86
	c-0.1-1.26-0.25-2.32-0.45-3.11c-0.21-0.82-0.63-1.58-1.22-2.18c-0.58-0.6-1.31-1.04-2.11-1.26c-0.96-0.27-2.83-0.43-5.47-0.53
	c-1.26-0.05-2.6-0.08-3.94-0.1C16.49,0.01,16.06,0,15.67,0h-1c-0.39,0-0.83,0.01-1.3,0.01c-1.34,0.02-2.69,0.05-3.94,0.1
	c-2.64,0.1-4.52,0.27-5.47,0.53C3.15,0.87,2.43,1.3,1.84,1.91c-0.58,0.6-1,1.36-1.22,2.18C0.42,4.88,0.27,5.93,0.17,7.19
	c-0.07,0.92-0.12,1.89-0.15,2.86C0.01,10.4,0.01,10.72,0,11c0,0.1,0,0.19,0,0.27v0.2c0,0.08,0,0.16,0,0.27
	c0,0.28,0.01,0.6,0.02,0.94c0.03,0.98,0.07,1.95,0.15,2.86c0.1,1.26,0.25,2.32,0.45,3.11c0.43,1.68,1.71,3,3.33,3.44
	c0.95,0.27,2.83,0.43,5.47,0.53c1.26,0.05,2.6,0.08,3.94,0.1c0.47,0.01,0.91,0.01,1.3,0.01h1c0.39,0,0.83-0.01,1.3-0.01
	c1.34-0.02,2.69-0.05,3.94-0.1c2.64-0.1,4.52-0.27,5.47-0.53c1.62-0.45,2.89-1.77,3.33-3.44c0.21-0.79,0.35-1.84,0.45-3.11
	c0.07-0.92,0.12-1.89,0.15-2.86c0.01-0.34,0.01-0.66,0.02-0.94c0-0.1,0-0.19,0-0.27V11.26z M27.9,11.45c0,0.07,0,0.15,0,0.25
	c0,0.27-0.01,0.57-0.02,0.9c-0.02,0.93-0.07,1.86-0.14,2.72c-0.09,1.13-0.22,2.05-0.38,2.67c-0.21,0.81-0.83,1.45-1.6,1.66
	c-0.71,0.2-2.5,0.35-4.94,0.45c-1.23,0.05-2.56,0.08-3.88,0.1c-0.46,0.01-0.89,0.01-1.28,0.01h-0.97l-1.28-0.01
	c-1.32-0.02-2.65-0.05-3.88-0.1c-2.43-0.1-4.23-0.25-4.94-0.45c-0.78-0.22-1.39-0.85-1.6-1.66c-0.16-0.62-0.29-1.54-0.38-2.67
	c-0.07-0.86-0.12-1.79-0.14-2.72c-0.01-0.33-0.01-0.63-0.02-0.9c0-0.09,0-0.18,0-0.25v-0.17c0-0.07,0-0.15,0-0.25
	c0-0.27,0.01-0.57,0.02-0.9C2.48,9.2,2.53,8.27,2.6,7.41c0.09-1.13,0.22-2.05,0.38-2.67c0.21-0.81,0.83-1.45,1.6-1.66
	c0.71-0.2,2.5-0.35,4.94-0.45c1.23-0.05,2.56-0.08,3.88-0.1c0.46-0.01,0.89-0.01,1.28-0.01h0.97l1.28,0.01
	c1.32,0.02,2.65,0.05,3.88,0.1c2.43,0.1,4.23,0.25,4.94,0.45c0.78,0.22,1.39,0.85,1.6,1.66c0.16,0.62,0.29,1.54,0.38,2.67
	c0.07,0.86,0.12,1.79,0.14,2.72c0.01,0.33,0.01,0.63,0.02,0.9c0,0.09,0,0.18,0,0.25V11.45z M12.15,16.05l7.85-4.72l-7.85-4.65V16.05
	z"/>
</svg>
