<?xml version="1.0" encoding="utf-8"?>
<!-- Generator: Adobe Illustrator 25.2.3, SVG Export Plug-In . SVG Version: 6.00 Build 0)  -->
<svg version="1.1" id="Capa_1" xmlns="http://www.w3.org/2000/svg" xmlns:xlink="http://www.w3.org/1999/xlink" x="0px" y="0px"
	 viewBox="0 0 22 22.72" style="enable-background:new 0 0 22 22.72;" xml:space="preserve">
<style type="text/css">
	.st0{fill-rule:evenodd;clip-rule:evenodd;fill:#FFFFFF;}
</style>
<path class="st0" d="M6.47,0.07C7.64,0.01,8.01,0,11,0s3.36,0.01,4.53,0.07c1.17,0.05,1.97,0.25,2.67,0.53
	c0.73,0.29,1.4,0.73,1.95,1.31c0.56,0.57,0.99,1.25,1.27,2.01c0.27,0.72,0.46,1.55,0.51,2.76C21.99,7.89,22,8.28,22,11.36
	c0,3.09-0.01,3.47-0.07,4.68c-0.05,1.21-0.24,2.03-0.51,2.76c-0.28,0.76-0.71,1.45-1.27,2.01c-0.55,0.58-1.22,1.02-1.95,1.31
	c-0.7,0.28-1.5,0.47-2.67,0.53c-1.17,0.06-1.55,0.07-4.54,0.07s-3.36-0.01-4.53-0.07C5.3,22.6,4.49,22.41,3.8,22.13
	c-0.73-0.29-1.4-0.73-1.95-1.31c-0.56-0.57-0.99-1.25-1.27-2.01c-0.27-0.72-0.46-1.55-0.51-2.76C0.01,14.83,0,14.45,0,11.36
	c0-3.09,0.01-3.47,0.07-4.68s0.24-2.04,0.51-2.76c0.28-0.76,0.71-1.44,1.27-2.01C2.4,1.33,3.06,0.88,3.79,0.6
	C4.49,0.32,5.29,0.12,6.47,0.07L6.47,0.07z M15.44,2.11C14.28,2.06,13.94,2.05,11,2.05S7.72,2.06,6.55,2.11
	C5.48,2.16,4.9,2.35,4.51,2.5C4,2.71,3.63,2.96,3.25,3.35C2.88,3.72,2.6,4.17,2.42,4.66c-0.15,0.4-0.33,1-0.38,2.11
	c-0.05,1.2-0.06,1.56-0.06,4.59c0,3.03,0.01,3.39,0.06,4.59c0.05,1.11,0.23,1.71,0.38,2.11C2.6,18.56,2.88,19,3.25,19.37
	c0.36,0.38,0.79,0.67,1.27,0.85c0.39,0.16,0.97,0.34,2.04,0.39c1.16,0.05,1.51,0.07,4.45,0.07s3.28-0.01,4.44-0.07
	c1.07-0.05,1.66-0.24,2.04-0.39c0.51-0.21,0.88-0.45,1.26-0.85c0.36-0.37,0.65-0.81,0.82-1.31c0.15-0.4,0.33-1,0.38-2.11
	c0.05-1.2,0.06-1.56,0.06-4.59c0-3.03-0.01-3.39-0.06-4.59c-0.05-1.11-0.23-1.71-0.38-2.11c-0.2-0.53-0.44-0.91-0.82-1.31
	c-0.36-0.38-0.79-0.67-1.26-0.85C17.1,2.35,16.52,2.16,15.44,2.11z M9.6,14.86c0.78,0.34,1.66,0.38,2.47,0.13
	c0.81-0.25,1.52-0.79,1.99-1.52c0.47-0.73,0.68-1.61,0.6-2.48c-0.08-0.87-0.46-1.69-1.06-2.31c-0.38-0.4-0.85-0.7-1.36-0.89
	c-0.51-0.19-1.06-0.26-1.6-0.2C10.1,7.65,9.58,7.82,9.11,8.11C8.65,8.4,8.25,8.79,7.95,9.26c-0.3,0.47-0.5,1-0.58,1.55
	c-0.08,0.55-0.04,1.12,0.12,1.66c0.16,0.54,0.43,1.03,0.79,1.45C8.64,14.32,9.09,14.65,9.6,14.86z M7,7.23
	c0.53-0.54,1.15-0.97,1.83-1.27C9.52,5.67,10.26,5.52,11,5.52s1.48,0.15,2.16,0.44c0.69,0.29,1.31,0.72,1.83,1.27
	c0.52,0.54,0.94,1.19,1.23,1.89c0.28,0.71,0.43,1.47,0.43,2.23c0,0.77-0.15,1.53-0.43,2.23c-0.28,0.71-0.7,1.35-1.23,1.89
	c-1.06,1.1-2.5,1.71-4,1.71c-1.5,0-2.94-0.62-4-1.71c-1.06-1.1-1.66-2.58-1.66-4.13C5.35,9.81,5.94,8.33,7,7.23z M17.91,6.39
	c0.13-0.13,0.23-0.28,0.31-0.45c0.07-0.17,0.11-0.35,0.11-0.54c0-0.18-0.03-0.37-0.1-0.54c-0.07-0.17-0.17-0.33-0.29-0.46
	c-0.13-0.13-0.28-0.23-0.44-0.3c-0.17-0.07-0.34-0.1-0.52-0.1c-0.18,0-0.36,0.04-0.52,0.12c-0.16,0.07-0.31,0.18-0.43,0.32
	c-0.24,0.26-0.37,0.61-0.36,0.97s0.15,0.7,0.39,0.96c0.25,0.25,0.58,0.4,0.93,0.4S17.66,6.64,17.91,6.39z"/>
</svg>
