<?xml version="1.0" encoding="utf-8"?>
<!-- Generator: Adobe Illustrator 25.2.3, SVG Export Plug-In . SVG Version: 6.00 Build 0)  -->
<svg version="1.1" id="Capa_1" xmlns="http://www.w3.org/2000/svg" xmlns:xlink="http://www.w3.org/1999/xlink" x="0px" y="0px"
	 viewBox="0 0 61.3 85.8" style="enable-background:new 0 0 61.3 85.8;" xml:space="preserve">
<style type="text/css">
	.st0{fill:#6A3381;}
</style>
<path class="st0" d="M12.3,0C9,0,5.9,1.3,3.6,3.6S0,9,0,12.3v61.3c0,3.3,1.3,6.4,3.6,8.7c2.3,2.3,5.4,3.6,8.7,3.6H49
	c3.3,0,6.4-1.3,8.7-3.6c2.3-2.3,3.6-5.4,3.6-8.7V27.1c0-2.4-1-4.8-2.7-6.5L40.7,2.7c-0.9-0.9-1.9-1.5-3-2C36.6,0.2,35.4,0,34.2,0
	H12.3z M6.1,12.3c0-1.6,0.6-3.2,1.8-4.3s2.7-1.8,4.3-1.8h18.4v15.3c0,2.4,1,4.8,2.7,6.5c1.7,1.7,4.1,2.7,6.5,2.7h15.3v42.9
	c0,1.6-0.6,3.2-1.8,4.3c-1.1,1.1-2.7,1.8-4.3,1.8H12.3c-1.6,0-3.2-0.6-4.3-1.8c-1.1-1.1-1.8-2.7-1.8-4.3V12.3z M53.9,24.5H39.8
	c-0.8,0-1.6-0.3-2.2-0.9c-0.6-0.6-0.9-1.4-0.9-2.2V7.4L53.9,24.5z"/>
</svg>
