<?xml version="1.0" encoding="utf-8"?>
<!-- Generator: Adobe Illustrator 25.2.3, SVG Export Plug-In . SVG Version: 6.00 Build 0)  -->
<svg version="1.1" id="Capa_1" xmlns="http://www.w3.org/2000/svg" xmlns:xlink="http://www.w3.org/1999/xlink" x="0px" y="0px"
	 viewBox="0 0 26.7 20" style="enable-background:new 0 0 26.7 20;" xml:space="preserve">
<style type="text/css">
	.st0{fill:#C27EDF;}
</style>
<path class="st0" d="M25.3,0c-0.1,0-0.2,0-0.3,0H1.7C1.5,0,1.4,0,1.2,0.1l12,12L25.3,0z"/>
<path class="st0" d="M26.6,1.2L14.4,13.3c-0.3,0.3-0.7,0.5-1.2,0.5c-0.4,0-0.9-0.2-1.2-0.5l-12-12C0,1.4,0,1.5,0,1.7v16.7
	c0,0.4,0.2,0.9,0.5,1.2C0.8,19.8,1.2,20,1.7,20H25c0.4,0,0.9-0.2,1.2-0.5c0.3-0.3,0.5-0.7,0.5-1.2V1.7C26.6,1.5,26.6,1.3,26.6,1.2z
	 M2.8,18.3H1.6v-1.2l6.1-6l1.2,1.2L2.8,18.3z M25,18.3h-1.2l-6.1-6l1.2-1.2l6.1,6L25,18.3z"/>
</svg>
