<?xml version="1.0" encoding="UTF-8" standalone="no"?>
<svg
   xmlns:dc="http://purl.org/dc/elements/1.1/"
   xmlns:cc="http://creativecommons.org/ns#"
   xmlns:rdf="http://www.w3.org/1999/02/22-rdf-syntax-ns#"
   xmlns:svg="http://www.w3.org/2000/svg"
   xmlns="http://www.w3.org/2000/svg"
   xmlns:sodipodi="http://sodipodi.sourceforge.net/DTD/sodipodi-0.dtd"
   xmlns:inkscape="http://www.inkscape.org/namespaces/inkscape"
   viewBox="0 0 750.84987 458.10499"
   version="1.1"
   id="svg16"
   sodipodi:docname="icon_ret_blue.svg"
   inkscape:version="1.0.1 (3bc2e813f5, 2020-09-07)"
   width="750.84985"
   height="458.10498">
  <metadata
     id="metadata20">
    <rdf:RDF>
      <cc:Work
         rdf:about="">
        <dc:format>image/svg+xml</dc:format>
        <dc:type
           rdf:resource="http://purl.org/dc/dcmitype/StillImage" />
        <dc:title />
      </cc:Work>
    </rdf:RDF>
  </metadata>
  <sodipodi:namedview
     pagecolor="#686868"
     bordercolor="#666666"
     borderopacity="1"
     objecttolerance="10"
     gridtolerance="10"
     guidetolerance="10"
     inkscape:pageopacity="0"
     inkscape:pageshadow="2"
     inkscape:window-width="1920"
     inkscape:window-height="1013"
     id="namedview18"
     showgrid="false"
     inkscape:zoom="0.20277907"
     inkscape:cx="-560.11553"
     inkscape:cy="803.84597"
     inkscape:window-x="-9"
     inkscape:window-y="-9"
     inkscape:window-maximized="1"
     inkscape:current-layer="svg16"
     fit-margin-top="0"
     fit-margin-left="0"
     fit-margin-right="0"
     fit-margin-bottom="0"
     inkscape:document-rotation="0" />
  <defs
     id="defs4">
    <style
       id="style2">.cls-1{fill:#fff;}</style>
  </defs>
  <path
     style="fill:#4d92ce;fill-opacity:1;stroke:none;stroke-width:0.846648"
     d="m 110.02489,18.694921 c -2.3029,-2.17834 -4.522,-4.27591 -7.6198,-5.24583 -27.403301,-8.580045 -25.515901,42.3201 0,32.96177 3.0945,-1.1351 5.3118,-3.45094 7.6198,-5.7031 0.1084,1.96295 2.2758,8.68999 4.5719,3.96019 1.5731,-3.23868 0.508,-8.89674 0.508,-12.42667 V 9.381801 c 0,-2.294335 0.817,-6.778195 -0.8661,-8.63504505 -1.9964,-2.20203995 -3.8074,1.00007005 -4.0885,2.72551005 -0.7916,4.856895 -0.1253,10.303295 -0.1253,15.222655 m 212.5085,0 c -2.7702,-2.62046 -5.4363,-4.95382 -9.3131,-5.64756 -3.0903,-0.55295 -6.4303,-0.23605 -9.3123,1.01902 -25.4866,11.0993 5.1129,48.90956 17.7788,26.64138 2.937,8.28334 5.9231,4.43601 5.9265,-2.53995 V 7.688496 c -0.01,-11.66796 -5.0799,-6.06538 -5.0799,2.539955 v 8.46647 m 78.9575,-18.40937505 c -2.7888,1.33834005 -1.9126,6.63588005 -1.9126,9.09625505 v 27.93937 c 0,1.95093 -0.8661,9.97494 3.1674,8.67686 2.8294,-0.91099 1.9125,-6.47236 1.9125,-8.67686 V 8.535151 c 0,-1.727455 0.7739,-10.140655 -3.1673,-8.24960505 M 654.41919,17.848271 c 0,-2.1255 0.779,-20.798315 -3.7387,-17.14331505 -2.1209,1.71587005 -1.3411,6.30149005 -1.3411,8.67684505 v 24.55278 c 0,2.43335 -1.4156,12.16141 2.5399,12.16141 3.3349,0 2.5391,-5.88141 2.5399,-7.92818 0,-7.35601 -0.1,-24.99244 12.6871,-20.1817 8.5587,3.22039 5.7284,15.62666 5.9519,22.72097 0.053,1.66188 0.701,7.21885 3.7473,5.00741 2.7761,-2.0157 1.3199,-10.44331 1.3199,-13.47321 0,-4.48435 0.6053,-9.40507 -1.557,-13.51241 -4.7353,-8.9941 -15.9686,-6.39024 -22.1492,-0.8806 M 204.25929,1.132196 c -2.827,1.29954 -0.9101,6.03692 2.0269,4.58665 2.7914,-1.37885 0.8246,-5.89749005 -2.0269,-4.58665 M 25.360089,28.008041 c 12.2333,-3.53229 15.7385,-19.59379 2.54,-24.990465 -4.4676,-1.82672 -23.2056995,-3.81426005 -26.2225995,0.70681 -3.1731,4.755225 -0.8701,16.978275 -0.8701,22.590365 0,4.5078 -1.9762,15.31602 0.9943,18.94568 1.7871,2.18385 3.6452,-0.19786 3.9601,-2.06234 1.2288,-7.27423 -0.9353,-18.33407 11.1285995,-13.83253 6.935,2.58769 8.9014,11.86331 14.6465,15.89487 7.6774,5.38748 -0.17,-8.82156 -1.4131,-10.47921 -1.6652,-2.22067 -3.2973,-4.41848 -4.7637,-6.77318 m 507.141901,-4.23323 c 14.713,-13.55864 -0.4961,-22.012845 -14.393,-22.012845 -2.9895,0 -8.8534,-1.10125005 -11.3425,0.87016 -3.5196,2.78788 -1.3572,16.100045 -1.3572,20.296035 0,5.10884 -2.3664,18.26168 0.8703,22.34861 3.3494,4.22901 22.5615,1.55165 27.0682,-0.17898 10.5619,-4.05595 9.695,-18.18328 -0.8458,-21.32298 M 5.8871895,24.621451 c 0,-4.18345 -1.8084,-13.88671 0.8702,-17.268735 1.5761,-1.98991 5.3823995,-1.36004 7.5962995,-1.35751 4.569,0.005 10.4897,-0.0289 14.1997,3.092635 5.1543,4.33679 2.4636,12.31415 -3.1966,14.56158 -1.8937,0.75191 -3.9087,0.90693 -5.9232,0.95967 -4.5097,0.11803 -9.0351,0.0124 -13.5463995,0.0124 M 510.48919,22.081511 V 5.995206 c 5.8782,0 14.2076,-1.47879 19.4229,1.769075 4.4102,2.74619 4.5668,9.5843 -0.042,12.24049 -5.4871,3.1624 -13.3203,2.07674 -19.3806,2.07674 M 73.619389,39.014461 c -9.5838,-0.37557 -21.8205,9.58253 -24.5528,-7.61983 h 12.6997 c 3.0981,0 9.638,1.22172 12.1764,-0.87018 3.6536,-3.01076 -1.5639,-11.67832 -3.9882,-13.91872 -9.3153,-8.60896 -23.6407,-1.95821 -25.6895,9.70902 -0.5757,3.27864 -0.4357,7.00762 0.6605,10.15977 3.9183,11.26744 24.7395,16.50209 28.6939,2.53994 m 76.198201,2.53994 c 0.2125,2.73214 3.1284,7.30107 4.7125,2.41388 2.2419,-6.91516 0.6671,-18.01649 0.3513,-25.27268 -0.074,-1.68881 -1.4782,-7.40266 -4.1977,-4.40248 -6.3007,6.95165 6.261,26.7941 -10.1792,28.00015 -12.0571,0.8845 -10.1073,-15.08878 -10.1606,-22.75102 -0.01,-1.24102 -0.4919,-8.4062 -3.379,-5.20663 -2.0946,2.3221 -0.8534,9.05591 -0.8534,11.97913 0,4.47716 -0.9262,10.25315 1.1159,14.38979 4.8682,9.86387 16.2692,6.82533 22.5902,0.84986 m 44.0257,-2.53994 c -5.5066,-0.89533 -9.38,4.45379 -15.2397,3.26053 -10.8794,-2.21568 -12.7657,-16.83948 -4.1968,-22.85686 6.6183,-4.64708 9.6027,0.68468 15.9542,1.33728 2.1979,0.22571 3.1149,-1.58586 1.9152,-3.36449 -4.2367,-6.27917 -15.7138,-5.45682 -21.2162,-1.79447 -7.8535,5.22711 -9.7881,16.52698 -4.5617,24.26144 6.1263,9.06599 23.2531,11.086 27.345,-0.84343 m 10.379,-25.18251 c -2.2436,1.0766 -1.8981,4.52855 -1.9117,6.55627 -0.045,6.48659 -0.088,12.98689 0,19.47289 0.025,1.75078 -0.023,7.2164 3.2063,6.13692 2.2571,-0.7547 1.8567,-4.31832 1.8694,-6.13692 0.047,-6.77073 0.047,-13.54814 0,-20.31886 -0.011,-1.67459 0.1193,-7.28718 -3.1665,-5.7103 m 42.1131,25.18251 c -11.4475,1.49721 -18.4374,7.47175 -24.5528,-6.77318 l 26.2461,-0.84665 c -0.017,-5.99841 -0.9542,-11.73961 -5.9629,-15.73164 -10.4536,-8.330945 -24.4131,1.27395 -25.1827,13.1917 -0.5351,8.28792 4.5312,15.66332 12.5194,17.8403 6.3701,1.73614 15.7688,-0.29852 16.9329,-7.68053 m 15.2397,-21.16619 c -0.3268,-4.09083 -3.9158,-5.78903 -4.8869,-0.8088 -0.729,3.74159 -0.193,8.01479 -0.193,11.81522 v 7.61983 c 0,1.47317 1.4012,14.72404 4.5719,8.19343 3.4518,-7.10803 -4.2206,-29.15185 11.5144,-27.29524 10.4019,1.22739 8.4173,15.23915 8.4673,22.4884 0.011,1.6187 0.2023,8.30934 3.6203,5.85338 2.992,-2.14998 1.4596,-11.08642 1.4587,-14.31986 -0.01,-16.71163 -10.5771,-22.66449 -24.5527,-13.54636 m 88.0513,-4.63175 c -20.9901,4.8507 -13.6581,38.2103 7.6198,33.69674 22.476,-4.7679 14.7622,-38.86908 -7.6198,-33.69674 m 88.0513,13.94488 c -3.9436,-0.7321 -7.8382,-1.00963 -11.853,-0.8127 -17.0947,0.83869 -13.6912,23.38847 2.5399,20.72398 3.6702,-0.60264 6.4938,-2.36274 9.3131,-4.67163 0.4395,2.01299 2.7762,5.96633 4.5719,2.2669 2.4722,-5.09072 1.6214,-21.15941 -1.2606,-25.93645 -3.3722,-5.5894 -10.998,-6.5064 -16.8576,-5.44183 -2.0184,0.36668 -7.415,1.17887 -6.8401,4.32273 0.5546,3.02803 7.5674,-0.007 9.38,-0.16197 6.3499,-0.5438 10.5984,3.63585 11.0064,9.71097 m 12.6998,12.69971 c 3.3087,9.22685 22.1889,10.53856 25.0319,-6.8e-4 3.1462,-11.66782 -11.0809,-9.8769 -16.2802,-15.57222 -4.4406,-4.86449 3.5111,-7.59908 7.3346,-6.61892 2.9319,0.75149 5.4075,1.71531 8.4664,1.87228 -1.5671,-9.60708 -19.5584,-8.78685 -22.3057,0.003 -3.7033,11.84561 11.6685,9.9746 16.8211,15.70878 4.533,5.04441 -4.1756,8.14415 -8.0617,7.1965 -3.9759,-0.96966 -6.8223,-3.39726 -11.0064,-2.58896 m 105.8309,-19.47289 c -5.5218,-17.948065 -5.9291,12.05888 -5.9265,17.77959 8e-4,2.09207 -0.7646,6.96842 1.9125,7.83022 2.6881,0.86528 3.0751,-2.71926 3.1513,-4.44752 0.4182,-9.48245 -0.5766,-17.82938 9.3131,-22.77981 1.546,-0.77392 5.0452,-2.29416 3.3298,-4.6481 -3.2883,-4.51 -10.4264,3.71111 -11.7802,6.26562 m 22.0128,11.00641 c 4.7108,0 22.4836,2.61318 25.3427,-1.35751 1.5807,-2.19502 -0.2751,-6.66227 -1.2378,-8.79904 -3.6643,-8.12697 -14.0128,-10.71212 -21.5522,-6.32505 -13.5709,7.89609 -8.3691,30.2552 6.7605,32.30985 3.0563,0.41502 16.2996,-1.4559 14.1,-7.0044 -1.1396,-2.87479 -8.0127,2.00257 -9.8668,2.39491 -7.0687,1.49577 -12.842,-4.73081 -13.5464,-11.21876 m 62.6519,-11.00641 c -4.1773,-11.72412 -21.5649,-8.60609 -27.3441,0.003 -10.4214,15.5243 12.4084,37.79088 25.3655,22.67923 0.878,-1.02385 2.2115,-3.67428 0,-4.13587 -4.6091,-0.96204 -8.4885,4.89295 -14.1077,3.07367 -11.3738,-3.68275 -11.2544,-20.59445 9e-4,-24.28041 6.0747,-1.98945 10.2343,3.9977 16.0854,2.66017 m 69.4251,6.77318 c -4.1883,-0.77748 -8.4368,-1.11902 -12.6997,-0.76757 -7.8094,0.6437 -15.1617,9.46255 -8.9456,16.67294 5.8816,6.82262 15.6943,4.20826 21.6453,-0.66572 0.4395,2.01299 2.7762,5.96633 4.5719,2.2669 2.4722,-5.09072 1.6214,-21.15941 -1.2606,-25.93645 -3.3722,-5.5894 -10.998,-6.5064 -16.8576,-5.44183 -2.0184,0.36677 -7.415,1.17887 -6.8401,4.32273 0.5546,3.02786 7.5682,-0.007 9.38,-0.16197 6.3499,-0.5438 10.5984,3.63593 11.0064,9.71097 m 12.6998,12.69971 c 3.3087,9.22685 22.1889,10.53856 25.0319,-6.8e-4 3.1546,-11.69923 -11.0927,-9.9139 -16.2801,-15.57281 -4.4534,-4.85806 3.5186,-7.59637 7.3345,-6.61833 2.9319,0.7514 5.4075,1.71531 8.4664,1.87228 -1.5663,-9.60124 -19.5296,-8.75518 -22.3057,0.0124 -3.7405,11.81056 11.6955,9.99535 16.8212,15.69964 4.5329,5.04441 -4.1757,8.14415 -8.0618,7.1965 -3.975,-0.96958 -6.8223,-3.39726 -11.0064,-2.58896 M 70.232489,28.008041 h -21.1662 c 1.5161,-14.70618 18.3092,-13.26696 21.1662,0 m 26.246,-10.70594 c 15.270201,-2.55391 19.465301,22.54495 4.233301,24.91802 -15.557301,2.4237 -18.908101,-22.46367 -4.233301,-24.91802 m 146.470101,10.70594 h -21.1662 c 3.1266,-13.04006 19.8242,-14.90057 21.1662,0 m 66.0385,-10.71508 c 14.7824,-2.65915 19.6329,21.44947 5.0798,24.77426 -16.0016,3.65565 -20.1552,-22.06237 -5.0798,-24.77426 m 42.3323,0.0432 c 15.1356,-3.3998 20.7632,21.25017 5.9266,25.00285 -16.0008,4.04715 -21.4498,-21.51594 -5.9266,-25.00285 m 248.0678,10.6719 h -21.1662 c 1.5392,-14.93325 18.0717,-13.0222 21.1662,0 m -88.898,13.54634 v -15.23965 c 6.2194,0 15.5038,-1.71726 21.1501,1.2334 5.3982,2.82153 5.4676,10.15037 0,13.00806 -5.433,2.83931 -15.133,0.99819 -21.1501,0.99819 m -72.8117,-11.00641 c 0,2.17698 0.2794,4.6856 -0.5105,6.76014 -5.935,15.57543 -27.6092,-2.39627 -13.0316,-7.0541 1.6255,-0.51959 3.384,-0.55548 5.0756,-0.53703 2.8447,0.0312 5.637,0.60764 8.4665,0.83099 m 272.6205,0 c 0,2.17698 0.2794,4.6856 -0.5105,6.76014 -5.8969,15.47638 -27.4966,-2.24099 -13.0232,-6.92609 1.6281,-0.52678 3.3671,-0.65302 5.0672,-0.65589 2.843,-0.005 5.6404,0.59874 8.4665,0.82184 M 74.465689,169.39818 h -33.0193 v 30.47931 h 33.0193 v 71.96504 h 30.479301 v -71.11839 c 33.7313,0 74.8809,-1.53413 104.1377,18.08354 11.0961,7.44034 19.5871,18.17668 23.5325,31.02201 1.3462,4.38394 0.8653,18.60423 4.0707,21.14248 1.9244,1.52397 5.6759,0.87036 7.9559,0.87036 h 21.1662 c 0,-28.2467 -9.5298,-52.61491 -30.4793,-71.96504 7.5462,-0.0626 26.4705,-0.42756 31.3023,-7.31334 2.0065,-2.85998 0.8703,-8.82884 0.8703,-12.15955 v -32.17261 c 0,-7.13301 0.2879,-14.07213 0.7705,-21.16619 0.1575,-2.30542 0.6248,-5.94177 -1.281,-7.67232 -2.2182,-2.01418 -6.8299,-2.32151 -9.6492,-3.01745 -8.9059,-2.1979 -18.0226,-3.4865 -27.0928,-4.77933 -36.8046,-5.24667 -74.869,-4.11047 -111.7574,-0.6807 -10.2428,0.95248 -20.400001,2.77615 -30.479301,4.80472 -3.4887,0.70272 -9.5177,1.03291 -12.1889,3.60164 -2.7684,2.66271 -1.3575,10.15384 -1.3575,13.66997 v 36.40585 m 414.857301,58.41868 c -39.8187,9.12855 -77.8907,11.00895 -118.5307,11.00641 -10.1225,-8.4e-4 -20.433,-1.06508 -30.4793,-2.29864 -3.2799,-0.40301 -8.8314,0.11599 -11.3425,-2.44258 -2.0438,-2.08275 -1.3572,-6.15851 -1.3572,-8.80513 v -22.85949 h 127.8438 V 169.39818 H 327.61329 V 144.8454 l 92.2846,-3.3104 69.4251,10.08359 v -23.70614 c 0,-2.57635 0.7044,-6.60724 -1.3572,-8.59009 -2.3647,-2.27325 -7.4183,-2.60344 -10.4959,-3.26298 -8.4157,-1.80251 -16.8771,-3.24774 -25.3994,-4.46268 -36.5439,-5.20942 -74.2849,-4.08592 -110.9108,-0.6807 -10.247,0.95248 -20.4009,2.92686 -30.4793,4.9749 -3.2791,0.66631 -8.8297,1.01598 -11.3426,3.43146 -2.1953,2.11239 -1.3572,6.69106 -1.3572,9.43673 v 25.39944 c 0,34.03015 -1.5019,68.43959 0.016,102.43164 0.2913,6.52511 8.3793,6.75456 13.5303,7.80101 14.6301,2.97258 29.2737,4.30859 44.0257,6.24572 32.6323,4.28404 68.2999,1.83807 100.751,-2.79817 7.9467,-1.13535 15.8908,-2.50946 23.7062,-4.36447 2.5357,-0.60196 6.7545,-0.99312 8.4427,-3.23334 1.723,-2.28595 0.8704,-6.87647 0.8704,-9.56458 v -22.85948 m 30.4793,-109.21754 v 33.86591 c 27.8361,-4.09524 53.5869,-11.00642 82.1248,-11.00642 v 130.38372 h 29.6327 V 141.45881 c 28.1442,0 54.7256,5.33557 82.1248,11.00642 v -23.70614 c 0,-2.8151 0.8153,-7.33112 -1.3572,-9.54341 -2.7982,-2.84897 -9.3148,-3.05809 -13.0358,-3.90135 -12.1681,-2.75922 -24.8288,-4.34584 -37.2525,-5.25683 -48.2606,-3.5373 -94.8466,-1.23949 -142.2368,8.54182 m -281.9336,26.24608 v 24.55278 l -53.3388,0.0127 -79.5849,-0.0127 V 144.8454 c 43.2722,-5.47358 89.7726,-8.13036 132.9237,0 M 3.3472895,458.10497 C 180.94519,385.24249 378.54589,365.05926 567.21459,402.06029 c 62.563,12.26962 121.9265,33.05481 181.1825,56.04468 0.4005,-9.31905 1.4766,-18.60169 1.706,-27.93937 0.068,-2.77361 1.6713,-7.15755 -0.04,-9.61029 -1.7551,-2.51793 -6.5683,-3.65244 -9.286,-4.7734 -8.3937,-3.46364 -16.8839,-6.75032 -25.3994,-9.899 -33.5849,-12.41947 -67.6878,-23.43774 -102.4444,-32.12689 -80.252,-20.063 -160.5743,-26.56187 -242.9878,-26.56187 -70.4513,0 -141.2318,4.60407 -209.9686,21.48283 -39.6604,9.73984 -78.299201,21.18143 -116.837401,34.6863 -9.9841,3.4992 -19.8119,7.4649 -29.6326,11.39334 -3.4276,1.37157 -9.6134995,2.62037 -11.8295995,5.78937 -1.9417,2.77616 -0.192,7.37938 -0.057,10.46626 0.3911,8.93213 0.093,18.29182 1.7266,27.09272 z"
     id="path867" />
  <path
     style="fill:#000000;stroke-width:0.846648"
     id="path861"
     d="" />
  <path
     style="fill:#000000;stroke-width:0.846648"
     id="path859"
     d="" />
</svg>
