<?xml version="1.0" encoding="utf-8"?>
<!-- Generator: Adobe Illustrator 25.2.3, SVG Export Plug-In . SVG Version: 6.00 Build 0)  -->
<svg version="1.1" id="Capa_1" xmlns="http://www.w3.org/2000/svg" xmlns:xlink="http://www.w3.org/1999/xlink" x="0px" y="0px"
	 viewBox="0 0 60 60" style="enable-background:new 0 0 60 60;" xml:space="preserve">
<style type="text/css">
	.st0{fill:#6A3381;}
</style>
<path class="st0" d="M30,0c-3.9,0-7.8,0.8-11.5,2.3C14.9,3.8,11.6,6,8.8,8.8C3.2,14.4,0,22,0,30s3.2,15.6,8.8,21.2
	c2.8,2.8,6.1,5,9.7,6.5C22.2,59.2,26.1,60,30,60c8,0,15.6-3.2,21.2-8.8S60,38,60,30c0-3.9-0.8-7.8-2.3-11.5
	c-1.5-3.6-3.7-6.9-6.5-9.7c-2.8-2.8-6.1-5-9.7-6.5C37.8,0.8,33.9,0,30,0z M30,6c6.4,0,12.5,2.5,17,7c4.5,4.5,7,10.6,7,17
	s-2.5,12.5-7,17c-4.5,4.5-10.6,7-17,7s-12.5-2.5-17-7c-4.5-4.5-7-10.6-7-17s2.5-12.5,7-17C17.5,8.5,23.6,6,30,6z M30,12
	c-4.8,0-9.4,1.9-12.7,5.3c-3.4,3.4-5.3,8-5.3,12.7s1.9,9.4,5.3,12.7c3.4,3.4,8,5.3,12.7,5.3s9.4-1.9,12.7-5.3
	c3.4-3.4,5.3-8,5.3-12.7s-1.9-9.4-5.3-12.7C39.4,13.9,34.8,12,30,12z M30,18c3.2,0,6.2,1.3,8.5,3.5c2.3,2.3,3.5,5.3,3.5,8.5
	s-1.3,6.2-3.5,8.5C36.2,40.7,33.2,42,30,42s-6.2-1.3-8.5-3.5C19.3,36.2,18,33.2,18,30s1.3-6.2,3.5-8.5C23.8,19.3,26.8,18,30,18z"/>
</svg>
