<?xml version="1.0" encoding="utf-8"?>
<!-- Generator: Adobe Illustrator 25.2.3, SVG Export Plug-In . SVG Version: 6.00 Build 0)  -->
<svg version="1.1" id="Capa_1" xmlns="http://www.w3.org/2000/svg" xmlns:xlink="http://www.w3.org/1999/xlink" x="0px" y="0px"
	 viewBox="0 0 60 48" style="enable-background:new 0 0 60 48;" xml:space="preserve">
<style type="text/css">
	.st0{fill:#6A3381;}
</style>
<path class="st0" d="M27,15c0,5-4,9-9,9s-9-4-9-9s4-9,9-9S27,10,27,15z M36,48H0v-6c0-6.6,8.1-12,18-12s18,5.4,18,12V48z M15,15
	c0,1.6,1.4,3,3,3s3-1.4,3-3s-1.4-3-3-3S15,13.4,15,15z M6,42h24c0-3.3-5.4-6-12-6S6,38.7,6,42z M60,24v6H33v-6H60z M60,12v6H33v-6
	H60z M60,0v6H33V0H60z"/>
</svg>
