<?xml version="1.0" encoding="utf-8"?>
<!-- Generator: Adobe Illustrator 25.2.3, SVG Export Plug-In . SVG Version: 6.00 Build 0)  -->
<svg version="1.1" id="Capa_1" xmlns="http://www.w3.org/2000/svg" xmlns:xlink="http://www.w3.org/1999/xlink" x="0px" y="0px"
	 viewBox="0 0 16 11" style="enable-background:new 0 0 16 11;" xml:space="preserve">
<style type="text/css">
	.st0{fill:#6A3381;}
</style>
<path class="st0" d="M7,10.5L0.3,2.4C-0.4,1.5,0.2,0,1.4,0h13.2c0.3,0,0.5,0.1,0.7,0.2c0.2,0.2,0.4,0.4,0.5,0.6
	C16,1.1,16,1.4,16,1.7c0,0.3-0.2,0.5-0.3,0.8L9,10.5c-0.1,0.2-0.3,0.3-0.5,0.4C8.4,11,8.2,11,8,11s-0.4,0-0.6-0.1
	C7.3,10.8,7.1,10.7,7,10.5L7,10.5z"/>
</svg>
