<?xml version="1.0" encoding="utf-8"?>
<!-- Generator: Adobe Illustrator 25.2.3, SVG Export Plug-In . SVG Version: 6.00 Build 0)  -->
<svg version="1.1" id="Capa_1" xmlns="http://www.w3.org/2000/svg" xmlns:xlink="http://www.w3.org/1999/xlink" x="0px" y="0px"
	 viewBox="0 0 129 181" style="enable-background:new 0 0 129 181;" xml:space="preserve">
<style type="text/css">
	.st0{fill:#DABEF1;}
</style>
<path class="st0" d="M25.8,0C19,0,12.4,2.7,7.6,7.6C2.7,12.4,0,19,0,25.9v129.3c0,6.9,2.7,13.4,7.6,18.3c4.8,4.8,11.4,7.6,18.2,7.6
	h77.4c6.8,0,13.4-2.7,18.2-7.6c4.8-4.9,7.6-11.4,7.6-18.3V57.1c0-5.1-2-10.1-5.7-13.7L85.7,5.7c-1.8-1.8-3.9-3.2-6.3-4.2
	c-2.3-1-4.9-1.5-7.4-1.5H25.8z M12.9,25.9c0-3.4,1.4-6.7,3.8-9.1c2.4-2.4,5.7-3.8,9.1-3.8h38.7v32.3c0,5.1,2,10.1,5.7,13.7
	c3.6,3.6,8.6,5.7,13.7,5.7h32.2v90.5c0,3.4-1.4,6.7-3.8,9.1c-2.4,2.4-5.7,3.8-9.1,3.8H25.8c-3.4,0-6.7-1.4-9.1-3.8
	c-2.4-2.4-3.8-5.7-3.8-9.1V25.9z M113.4,51.7H83.8c-1.7,0-3.4-0.7-4.6-1.9c-1.2-1.2-1.9-2.9-1.9-4.6V15.6L113.4,51.7z"/>
</svg>
