<?xml version="1.0" encoding="UTF-8" standalone="no"?>
<svg
   xmlns:dc="http://purl.org/dc/elements/1.1/"
   xmlns:cc="http://creativecommons.org/ns#"
   xmlns:rdf="http://www.w3.org/1999/02/22-rdf-syntax-ns#"
   xmlns:svg="http://www.w3.org/2000/svg"
   xmlns="http://www.w3.org/2000/svg"
   xmlns:sodipodi="http://sodipodi.sourceforge.net/DTD/sodipodi-0.dtd"
   xmlns:inkscape="http://www.inkscape.org/namespaces/inkscape"
   viewBox="0 0 403.00989 304.86457"
   version="1.1"
   id="svg36"
   sodipodi:docname="icon_punto-violeta.svg"
   width="403.00989"
   height="304.86456"
   inkscape:version="1.0.1 (3bc2e813f5, 2020-09-07)">
  <metadata
     id="metadata40">
    <rdf:RDF>
      <cc:Work
         rdf:about="">
        <dc:format>image/svg+xml</dc:format>
        <dc:type
           rdf:resource="http://purl.org/dc/dcmitype/StillImage" />
        <dc:title></dc:title>
      </cc:Work>
    </rdf:RDF>
  </metadata>
  <sodipodi:namedview
     pagecolor="#828282"
     bordercolor="#666666"
     borderopacity="1"
     objecttolerance="10"
     gridtolerance="10"
     guidetolerance="10"
     inkscape:pageopacity="0"
     inkscape:pageshadow="2"
     inkscape:window-width="1920"
     inkscape:window-height="1013"
     id="namedview38"
     showgrid="false"
     inkscape:pagecheckerboard="false"
     showguides="false"
     fit-margin-top="0"
     fit-margin-left="0"
     fit-margin-right="0"
     fit-margin-bottom="0"
     inkscape:zoom="0.90509668"
     inkscape:cx="-36.001905"
     inkscape:cy="296.82916"
     inkscape:window-x="-9"
     inkscape:window-y="-9"
     inkscape:window-maximized="1"
     inkscape:current-layer="svg36" />
  <defs
     id="defs4">
    <rect
       x="27.621359"
       y="154.12718"
       width="297.88278"
       height="85.778114"
       id="rect881" />
    <style
       id="style2">.cls-1{fill:#fff;}</style>
  </defs>
  <path
     style="fill:#ffffff;stroke-width:0.214613;fill-opacity:1"
     d="m 60.09162,295.31429 v -9.55027 h 0.95032 0.95031 l 0.14522,1.16226 0.14521,1.16225 0.6239,-0.71058 c 1.00435,-1.14391 2.3852,-1.69297 4.26727,-1.69679 2.64432,-0.005 4.54034,1.11691 5.75989,3.40936 0.50843,0.95571 0.57088,1.30779 0.57103,3.21919 1.9e-4,2.46616 -0.38383,3.58889 -1.66618,4.87124 -2.29942,2.29941 -6.54561,2.50115 -8.73845,0.41515 l -0.86239,-0.82036 v 4.04441 4.04442 h -1.07306 -1.07307 z m 8.93135,1.19902 c 2.21082,-1.00398 3.09103,-3.99954 1.88586,-6.41802 -0.68768,-1.37998 -1.89087,-2.15872 -3.60938,-2.3361 -0.99289,-0.10246 -1.36556,-0.0324 -2.32592,0.43749 -1.85071,0.90547 -2.64243,2.39868 -2.47789,4.67343 0.22667,3.13365 3.55662,4.99226 6.52733,3.6432 z m 11.674352,2.22438 c -2.901,-0.80984 -4.492282,-2.82023 -4.677702,-5.90969 -0.14869,-2.47768 0.31611,-3.81264 1.867712,-5.36425 1.55072,-1.55073 2.88345,-2.01476 5.37248,-1.87069 3.64932,0.21126 6.02768,2.74324 6.06616,6.45802 0.0208,2.00584 -0.47031,3.48879 -1.56849,4.7364 -1.64297,1.86651 -4.51656,2.66028 -7.06016,1.95021 z m 4.39775,-2.45828 c 3.00812,-1.85911 2.78096,-6.67502 -0.38936,-8.25485 -4.14119,-2.06363 -8.181982,2.36261 -5.98904,6.56037 0.4861,0.9305 0.81634,1.25918 1.77055,1.76212 1.02591,0.54076 1.33953,0.60547 2.50093,0.51604 0.85719,-0.066 1.60407,-0.2729 2.10692,-0.58368 z m 119.586148,2.56771 c -2.04638,-0.34415 -4.09347,-2.07612 -4.75761,-4.0253 -0.19448,-0.57076 -0.33357,-1.70939 -0.33357,-2.73067 0,-1.52592 0.0849,-1.92169 0.65905,-3.07057 1.13857,-2.27848 3.18746,-3.47117 5.96305,-3.47117 2.17999,0 3.54087,0.48496 4.74784,1.69192 1.33008,1.33008 1.82084,2.77123 1.7442,5.12204 l -0.0228,0.69749 h -5.49946 -5.49945 l 0.13932,0.69661 c 0.34909,1.74543 2.35259,3.16642 4.46438,3.16642 1.31665,0 3.15273,-0.57662 3.85247,-1.2099 0.397,-0.35926 0.44095,-0.34709 1.08998,0.30192 0.6445,0.64452 0.65901,0.69539 0.30866,1.08253 -0.61757,0.6824 -2.32821,1.49259 -3.67046,1.73838 -1.41271,0.2587 -1.70291,0.25964 -3.18565,0.0103 z m 5.85408,-8.05036 c 0,-0.71585 -0.45783,-1.57026 -1.21486,-2.26722 -2.05844,-1.89505 -6.03047,-1.12292 -7.17369,1.39451 -0.22063,0.48587 -0.40328,1.00409 -0.40586,1.15164 -0.004,0.20605 1.01576,0.26826 4.39484,0.26826 h 4.39957 z m 36.26959,8.07258 c -1.78547,-0.5451 -3.22703,-1.7568 -4.10173,-3.44774 -0.42349,-0.81868 -0.50054,-1.29257 -0.50601,-3.11189 -0.006,-1.91877 0.0541,-2.25981 0.56458,-3.21919 1.09107,-2.05033 2.89393,-3.25538 5.19129,-3.46991 1.75796,-0.16415 3.40383,0.30997 4.58465,1.32069 l 0.89247,0.76394 0.14555,-0.97061 0.14555,-0.97061 h 0.94138 0.9414 v 6.54569 6.5457 h -1.07307 -1.07306 v -1.0401 -1.0401 l -0.88041,0.8128 c -0.48423,0.44704 -1.32233,0.96335 -1.86245,1.14741 -1.02343,0.3487 -2.98634,0.41594 -3.91014,0.13392 z m 3.31287,-1.9644 c 2.7795,-0.6999 4.1328,-3.95678 2.81778,-6.78119 -0.72792,-1.56341 -1.85951,-2.28468 -3.74619,-2.3878 -1.23319,-0.0674 -1.57209,0.003 -2.59171,0.53859 -0.96125,0.5049 -1.2842,0.82785 -1.7891,1.7891 -0.53557,1.01962 -0.60598,1.35852 -0.5386,2.59171 0.11701,2.14083 1.10022,3.45439 3.12709,4.17778 0.99561,0.35534 1.53791,0.36965 2.72073,0.0718 z m 13.94345,1.95465 c -2.13577,-0.44959 -3.61821,-1.52909 -4.54741,-3.31137 -0.50349,-0.96567 -0.57034,-1.34129 -0.57641,-3.23851 -0.006,-1.73413 0.0792,-2.33198 0.44126,-3.11429 0.57156,-1.23477 1.5646,-2.22515 2.95816,-2.95024 0.96194,-0.5005 1.35741,-0.57362 3.13941,-0.58055 1.85919,-0.007 2.13842,0.0473 3.16923,0.61839 1.67093,0.92577 1.75452,1.09467 0.94337,1.90582 -0.58379,0.58382 -0.73657,0.64343 -1.05624,0.41221 -1.56796,-1.13412 -4.08756,-1.22447 -5.56644,-0.19961 -2.37346,1.64481 -2.62782,5.38921 -0.49691,7.31437 1.63733,1.47922 4.52563,1.58707 6.0305,0.2252 0.40521,-0.36673 0.44545,-0.35493 1.16358,0.34112 0.69865,0.67715 0.72237,0.74469 0.39045,1.11146 -1.03062,1.13882 -4.04438,1.87611 -5.99255,1.466 z m 19.51625,-0.002 c -3.08701,-0.64798 -5.09319,-3.17882 -5.1051,-6.44025 -0.0105,-2.89644 1.07152,-4.875 3.34208,-6.11081 0.92878,-0.5055 1.48049,-0.64197 2.89549,-0.71625 2.1935,-0.11511 3.53389,0.29505 4.90335,1.50049 2.63285,2.31754 3.03008,6.63272 0.87086,9.46057 -1.37318,1.79839 -4.4429,2.82343 -6.90668,2.30625 z m 3.4692,-2.33364 c 2.9211,-1.32703 3.58756,-5.28576 1.29171,-7.67284 -1.86835,-1.94261 -5.22434,-1.74738 -6.77567,0.39418 -1.82292,2.51647 -0.96241,6.17036 1.72791,7.33704 1.01823,0.44157 2.71359,0.41521 3.75605,-0.0584 z m 27.79053,2.34575 c -1.86215,-0.56851 -3.32776,-1.83304 -4.12031,-3.55505 -0.40813,-0.88676 -0.49249,-1.42702 -0.48595,-3.11188 0.007,-1.77569 0.0806,-2.17732 0.57102,-3.11189 0.71527,-1.36303 1.70762,-2.31331 3.06948,-2.93934 0.85957,-0.39512 1.43602,-0.49157 2.89728,-0.4847 2.05792,0.01 2.80958,0.29344 4.1313,1.55972 l 0.8048,0.77106 v -1.11663 -1.11661 h 0.96576 0.96575 v 6.54569 6.5457 h -1.07306 -1.07307 v -1.03985 -1.03982 l -0.83948,0.79858 c -0.46171,0.43922 -1.29982,0.95543 -1.86245,1.14715 -1.05854,0.36068 -3.01422,0.43386 -3.95107,0.14787 z m 3.32622,-1.96777 c 2.12077,-0.53402 3.45888,-2.51301 3.28884,-4.86401 -0.18246,-2.52243 -1.68435,-4.1301 -4.01584,-4.29874 -1.53931,-0.11134 -2.60205,0.21311 -3.61708,1.10431 -2.30849,2.02689 -1.94654,6.23324 0.65199,7.577 1.42939,0.73915 2.24582,0.84562 3.69209,0.48144 z M 92.498182,292.29795 v -6.55745 l 1.01941,0.0654 c 1.00823,0.0647 1.02014,0.0742 1.08569,0.86474 l 0.0663,0.79933 0.73699,-0.73698 c 0.41703,-0.41704 1.13363,-0.84431 1.65062,-0.98416 1.12969,-0.3056 3.085608,-0.14896 3.991948,0.31974 l 0.67987,0.35157 -0.45683,0.90595 c -0.25126,0.49829 -0.47843,0.93138 -0.50481,0.96243 -0.0264,0.0311 -0.39772,-0.0897 -0.825178,-0.26826 -0.90953,-0.38002 -2.01923,-0.41751 -2.8695,-0.097 -0.89852,0.33877 -1.97493,1.47515 -2.21465,2.33806 -0.11623,0.41837 -0.21186,2.52318 -0.21252,4.67736 l -0.001,3.91669 h -1.07307 -1.07306 z m 17.812868,-2.68472 v -9.24218 l 5.20437,0.0675 c 5.15691,0.0668 5.21414,0.0727 6.27742,0.63641 1.82668,0.96851 2.80644,2.46929 3.03411,4.64761 0.29843,2.85513 -1.12927,5.13067 -3.73402,5.95148 l -1.33991,0.42223 2.88922,3.21861 c 1.58907,1.77024 2.89307,3.29105 2.89778,3.37958 0.005,0.0885 -0.611,0.16096 -1.36823,0.16096 h -1.37678 l -2.86182,-3.32446 -2.86183,-3.32447 -2.19978,-0.002 -2.19979,-0.002 v 3.3265 3.3265 h -1.18037 -1.18037 v -9.24217 z m 10.3096,-0.0398 c 2.57661,-1.29931 2.48437,-5.43224 -0.14998,-6.72063 -0.67599,-0.33059 -1.45025,-0.41766 -4.31141,-0.48481 l -3.48747,-0.0818 v 3.88507 3.8851 h 3.49564 c 3.19831,0 3.57709,-0.0411 4.45322,-0.48288 z m 8.36173,0.0536 v -9.22836 h 6.43839 6.43839 v 1.07307 1.07306 h -5.25802 -5.25802 v 2.78997 2.78997 h 5.04341 5.0434 v 1.07307 1.07306 h -5.0434 -5.04341 v 3.11189 3.11188 h 5.47263 5.47263 v 1.18038 1.18037 h -6.653 -6.653 z m 21.41019,1.01941 -0.0562,-8.20894 -3.16554,-0.0594 -3.16554,-0.0594 v -0.96001 -0.96003 h 7.40414 7.40415 v 0.95986 0.95988 l -3.05824,0.0595 -3.05823,0.0596 -0.0562,8.20894 -0.0562,8.20895 h -1.06796 -1.06797 z m 17.22014,-1.01941 v -9.22836 h 1.18037 1.18037 v 9.22836 9.22836 h -1.18037 -1.18037 z m 6.653,2.68266 V 285.764 h 0.96576 c 0.87836,0 0.96576,0.047 0.96576,0.51898 0,1.14687 0.18824,1.21522 1.20636,0.43806 0.52639,-0.4018 1.36363,-0.84053 1.86053,-0.97496 2.12818,-0.57577 5.03217,0.36662 6.09941,1.97933 0.96316,1.45542 1.13512,2.51269 1.13512,6.97913 v 4.15085 h -1.07306 -1.07307 l -0.001,-3.91669 c -6.4e-4,-2.15418 -0.10228,-4.28067 -0.22582,-4.72554 -0.53879,-1.94014 -2.74975,-3.03604 -4.86052,-2.40922 -0.57545,0.17089 -1.30283,0.57857 -1.6164,0.90594 -1.09699,1.14528 -1.23674,1.8423 -1.23674,6.16828 v 3.97723 h -1.07307 -1.07306 v -6.5457 z m 18.88375,6.06282 c -1.56425,-1.06461 -1.60015,-1.19737 -1.6731,-6.18521 l -0.0657,-4.49179 h -1.27562 -1.27563 v -0.96575 -0.96576 h 1.28768 1.28767 v -1.8035 -1.8035 l 1.0732,-0.0744 1.07319,-0.0744 -1.3e-4,1.87786 -1.3e-4,1.87787 h 2.03883 2.03882 v 0.96576 0.96575 h -2.05157 -2.0516 l 0.0664,4.20434 c 0.0651,4.12196 0.0763,4.21235 0.57306,4.61417 0.55053,0.44535 1.80089,0.54186 2.68166,0.20698 0.4782,-0.1818 0.55765,-0.1339 0.76511,0.46124 0.34847,0.99961 0.2925,1.18067 -0.44433,1.43754 -1.20999,0.42181 -3.24763,0.29733 -4.04782,-0.24727 z m 22.53655,-6.06282 V 285.764 h 1.07307 1.07306 v 0.8656 0.86562 l 0.74709,-0.74709 c 1.23636,-1.23637 3.65119,-1.57953 5.43093,-0.77175 l 0.92002,0.41755 -0.46352,0.91906 c -0.25491,0.50548 -0.49094,0.95033 -0.52449,0.98853 -0.0335,0.0382 -0.35488,-0.0825 -0.7141,-0.26827 -1.21787,-0.62978 -3.04034,-0.36701 -4.08291,0.58866 -1.13242,1.03804 -1.30319,1.84857 -1.3083,6.20948 l -0.005,4.024 h -1.07306 -1.07307 z m 11.30296,6.40261 c -0.0787,-0.0787 -0.14309,-3.02423 -0.14309,-6.54569 V 285.764 h 1.07307 1.07306 v 0.98226 0.98226 l 0.62873,-0.62871 c 2.03797,-2.03798 5.77732,-2.02328 7.83138,0.0308 1.44851,1.44851 1.6267,2.25509 1.6267,7.36345 v 4.36135 h -1.07306 -1.07307 v -4.15875 c 0,-4.4902 -0.12535,-5.15545 -1.15285,-6.11819 -0.71301,-0.66806 -2.43241,-1.115 -3.42675,-0.89073 -1.1758,0.26518 -2.14637,0.97115 -2.72541,1.98236 -0.50233,0.87725 -0.53197,1.12618 -0.60176,5.05401 l -0.0734,4.1313 h -0.91026 c -0.50062,0 -0.97462,-0.0644 -1.0533,-0.14309 z m 46.21331,-6.40261 V 285.764 h 1.07307 1.07306 v 6.54569 6.5457 h -1.07306 -1.07307 z m 21.67591,0 V 285.764 h 1.07306 1.07307 v 1.0093 1.00933 l 0.82506,-0.80566 c 2.43811,-2.38075 7.04417,-1.6181 8.67778,1.43679 0.4443,0.83085 0.4813,1.21546 0.54506,5.66649 l 0.0684,4.77514 h -1.08783 -1.08781 v -4.17098 c 0,-2.43363 -0.0953,-4.42264 -0.22891,-4.77514 -0.53046,-1.40005 -1.88904,-2.27507 -3.53227,-2.27507 -1.23578,0 -1.83852,0.25599 -2.84405,1.20793 -1.08847,1.03046 -1.33545,2.2148 -1.33545,6.40379 v 3.60947 h -1.07307 -1.07306 z m 32.83578,-2.68266 v -9.22836 h 1.18037 1.18037 v 9.22836 9.22836 h -1.18037 -1.18037 z m 8.58452,2.10887 c -2.33952,-1.21254 -3.34908,-3.18215 -3.17106,-6.18651 0.14551,-2.45595 1.17831,-4.17618 3.09511,-5.15518 0.90448,-0.46197 1.32444,-0.53183 3.18784,-0.5302 2.40705,0.002 3.27902,0.31692 4.54953,1.64258 2.19206,2.28722 2.2453,6.79991 0.10679,9.05169 -1.20816,1.27216 -2.31951,1.72813 -4.43111,1.81799 -1.86213,0.0793 -1.99957,0.0529 -3.3371,-0.64037 z m 5.36532,-1.04435 c 0.97879,-0.49695 1.82638,-1.40384 2.24206,-2.39896 0.46331,-1.10916 0.4279,-3.48124 -0.0682,-4.56741 -1.32431,-2.89943 -5.17981,-3.80151 -7.62678,-1.78449 -2.12257,1.74957 -2.42717,5.28585 -0.65541,7.60876 1.26787,1.66224 4.05681,2.18371 6.10836,1.1421 z m -4.72148,-4.71294 v -3.21919 h 2.04858 c 1.8795,0 2.09132,0.0428 2.56662,0.51805 1.04474,1.04472 0.94207,2.44506 -0.23755,3.23999 l -0.66009,0.44485 0.93881,1.06409 0.93882,1.0641 -0.70513,0.0726 c -0.61712,0.0635 -0.82564,-0.0637 -1.67087,-1.01949 -0.62208,-0.70346 -1.1376,-1.09208 -1.44864,-1.09204 -0.43637,9e-5 -0.48288,0.10344 -0.48288,1.07315 0,1.04922 -0.0144,1.07307 -0.64383,1.07307 h -0.64384 z m 3.68518,-0.35518 c 0.90783,-0.82161 0.173,-1.79095 -1.35771,-1.79095 H 338.23 v 1.07307 1.07306 h 1.00253 c 0.63167,0 1.14768,-0.13138 1.39498,-0.35518 z m -67.42523,-2.86399 c -0.48893,-0.48893 -0.53642,-0.8976 -0.18248,-1.57005 0.5243,-0.9961 1.62831,-1.09572 2.32516,-0.2098 1.11841,1.42183 -0.85854,3.06398 -2.14268,1.77985 z m 4.50687,-17.96023 c -1.07574,-0.17824 -3.34811,-0.97037 -4.19729,-1.46314 -2.09999,-1.2186 -3.70658,-3.85192 -4.76303,-7.80696 -0.52083,-1.9498 -0.55665,-2.42452 -0.64532,-8.55638 -0.0516,-3.57062 -0.12287,-6.49204 -0.15828,-6.49204 -0.0354,0 -0.6809,0.37454 -1.43439,0.83229 -0.7535,0.45777 -1.87095,1.0478 -2.48324,1.3112 -0.61227,0.26339 -1.21216,0.59813 -1.33309,0.74383 -0.12091,0.1457 -0.4512,1.17328 -0.73398,2.28356 -0.9949,3.90645 -3.24664,8.29898 -5.54141,10.80982 -1.46928,1.60764 -3.48744,2.74308 -5.77708,3.25027 -2.19431,0.48608 -6.70777,0.48805 -8.55334,0.004 -3.57751,-0.93878 -5.79978,-3.46128 -7.43865,-8.4436 l -0.79935,-2.43004 -0.55147,1.25853 c -0.30331,0.69219 -1.66211,3.16814 -3.01954,5.5021 -4.19824,7.21844 -6.04813,8.70495 -10.82325,8.69716 -3.29474,-0.005 -6.17178,-0.95101 -7.98869,-2.62579 -1.70497,-1.57159 -1.99978,-3.22795 -2.15774,-12.12288 l -0.11525,-6.48925 -1.09186,0.86935 c -2.68977,2.14163 -5.7398,3.06525 -9.75442,2.95391 l -2.63656,-0.0731 -1.03383,2.57536 c -4.60525,11.47211 -5.16235,12.4542 -7.64291,13.47364 -1.678,0.68959 -2.81988,0.88225 -5.15895,0.87038 -4.17637,-0.0213 -4.90239,-0.6448 -8.01973,-6.88873 -3.69959,-7.41018 -5.45914,-14.25043 -8.37681,-32.565 -1.92734,-12.09814 -2.11169,-13.94044 -2.40886,-24.07237 -0.27214,-9.27841 -0.25662,-9.43904 0.97734,-10.11486 0.5183,-0.28387 1.17033,-0.36033 2.9207,-0.3425 2.5293,0.0258 4.28943,0.49586 6.04552,1.61461 1.6249,1.03517 1.72758,1.31301 1.93048,5.22334 0.73795,14.22166 0.89621,15.78597 2.64009,26.09476 2.51059,14.84115 3.34472,18.71847 5.26883,24.49137 1.13115,3.39378 1.62038,4.4342 1.93555,4.11617 0.26972,-0.27218 3.77284,-8.02661 3.93759,-8.71619 0.102,-0.42691 -0.0758,-1.11395 -0.63857,-2.46805 -2.35642,-5.66934 -3.52123,-12.29397 -3.52123,-20.02622 0,-6.31713 0.63909,-11.37764 2.16295,-17.12696 2.16302,-8.16078 4.52733,-12.52286 7.55286,-13.93472 4.08632,-1.90688 8.31074,-0.55405 10.10351,3.23557 1.16996,2.47309 1.32036,3.48401 1.31647,8.84794 l -0.004,4.93609 -2.2988,11.5891 c -2.38356,12.01633 -3.07188,15.01954 -4.34512,18.95803 -0.41418,1.28119 -0.75305,2.45038 -0.75305,2.59819 0,0.43568 2.82357,3.23158 3.26357,3.23158 1.06596,0 5.21147,-3.97004 6.94707,-6.65301 l 1.04123,-1.60959 0.24286,-4.76235 c 0.3149,-6.17523 0.32887,-6.19856 3.84734,-6.43276 2.15914,-0.14373 4.42959,0.31269 6.31166,1.26879 2.08518,1.05928 2.22872,1.38929 2.07709,4.77561 -0.56778,12.68081 -0.62347,27.4174 -0.10677,28.24574 0.14199,0.22762 0.27569,0.24176 0.56744,0.0601 0.58312,-0.3631 4.67103,-7.26361 5.45327,-9.20528 0.38045,-0.9443 1.55346,-3.60013 2.60671,-5.90186 l 1.91501,-4.18495 0.41376,-3.21919 c 0.4997,-3.88815 1.29044,-7.51963 2.03938,-9.36588 1.29757,-3.19875 4.25189,-6.86573 6.36585,-7.90149 3.53068,-1.72987 9.18114,-1.15615 13.48248,1.36897 2.5259,1.48285 3.43649,2.80864 3.95514,5.75864 0.25181,1.43214 0.47878,1.99571 1.29189,3.20763 1.72102,2.56512 2.46141,4.8827 2.85611,8.94015 0.11891,1.22246 0.26762,2.27406 0.33046,2.3369 0.16098,0.16098 2.25901,-1.14099 3.63428,-2.2553 l 1.15676,-0.93726 0.12997,-2.4004 c 0.0715,-1.32022 0.13138,-10.94734 0.13308,-21.39363 0.002,-10.44628 0.0807,-19.28297 0.17551,-19.63708 0.28067,-1.04809 1.64492,-1.6096 3.9107,-1.6096 2.18596,0 3.88647,0.40464 5.66314,1.34756 2.20249,1.1689 2.18734,1.1187 2.35787,7.80989 0.0807,3.16698 0.11973,13.48422 0.0867,22.92719 -0.0888,25.3886 -0.0668,27.34812 0.33524,29.89985 0.39588,2.51271 0.88721,3.78034 1.98404,5.11886 1.03422,1.26214 1.47967,1.48044 2.13913,1.04834 1.01825,-0.66719 2.85912,-3.51238 5.14552,-7.95276 4.73249,-9.19099 6.75372,-13.30525 6.8487,-13.94085 0.0537,-0.35907 0.24941,-1.78508 0.43494,-3.16893 0.62884,-4.68994 2.27739,-10.03657 3.85011,-12.48689 0.99377,-1.54832 3.29545,-3.61814 4.90399,-4.41002 3.66194,-1.80277 9.09109,-1.54607 13.60372,0.64324 2.48142,1.20385 4.80748,4.31383 5.41872,7.24488 0.54675,2.62178 0.15636,5.71081 -0.98718,7.81191 -1.99839,3.67169 -7.34251,5.63971 -12.40349,4.5677 -0.82622,-0.175 -1.6622,-0.31819 -1.85773,-0.31819 -0.9604,0 -0.84156,6.79029 0.18592,10.62334 0.47483,1.77142 1.1591,3.08077 2.87869,5.50828 1.53534,2.1674 2.34331,2.96893 2.99277,2.96893 0.55883,0 3.83932,-2.77357 5.27388,-4.45895 1.55933,-1.83195 3.44443,-4.73146 4.77514,-7.34476 l 1.03819,-2.03882 0.21489,-12.12563 c 0.15778,-8.90279 0.15122,-12.16755 -0.0247,-12.28331 -0.13179,-0.0867 -0.97054,-0.15916 -1.86391,-0.16096 -3.65769,-0.007 -5.98642,-1.55648 -4.26464,-2.83686 0.5969,-0.44388 3.04162,-1.11811 4.92318,-1.35777 1.81725,-0.23144 1.87533,-0.29406 2.03212,-2.19103 0.5228,-6.32422 0.8247,-8.79337 1.14065,-9.32892 0.49215,-0.83417 1.39185,-1.12182 3.47473,-1.11089 2.89535,0.0152 5.97631,1.00883 7.4633,2.40695 0.83057,0.78094 0.84703,1.03779 0.38652,6.03136 -0.18901,2.04943 -0.23106,3.45164 -0.11023,3.67737 0.2632,0.49183 0.98939,0.6465 3.46265,0.73752 2.70878,0.0997 4.10632,0.64051 4.00191,1.54867 -0.10127,0.8809 -1.19825,1.29092 -4.70013,1.75671 -1.65548,0.2202 -3.0539,0.44427 -3.10757,0.49797 -0.23655,0.23652 -0.56027,17.93889 -0.45634,24.95343 0.09,6.07183 0.1906,8.07069 0.47003,9.33566 0.43796,1.98268 1.05544,3.43381 1.46117,3.43381 0.45122,0 2.1531,-2.65605 3.46911,-5.4141 1.23815,-2.59482 3.86179,-9.91956 4.74863,-13.25722 1.64402,-6.18736 3.90452,-10.85723 6.45668,-13.33861 3.23557,-3.14583 7.26233,-4.57968 12.83666,-4.57089 3.21511,0.005 4.90686,0.31355 7.16257,1.30603 1.40679,0.61897 1.74554,0.62946 2.44927,0.0759 0.76641,-0.60285 2.40124,-0.86972 3.96974,-0.648 1.49455,0.21124 3.67072,1.11978 4.30844,1.79875 0.99199,1.05613 1.13687,4.33795 0.45151,10.22639 -0.57085,4.90436 -0.75726,11.28671 -0.44395,15.19909 0.36654,4.57685 1.50793,10.12496 2.08297,10.12496 0.98544,0 4.44255,-7.0346 6.84553,-13.92941 1.50225,-4.31039 3.17284,-8.09552 3.91623,-8.87321 0.45629,-0.47732 0.75385,-0.59019 1.55608,-0.59019 1.53166,0 1.81438,0.31834 1.6392,1.8457 -0.26971,2.35179 -2.0505,10.69596 -2.67484,12.53337 -0.34091,1.00331 -1.54615,3.73677 -2.67835,6.07436 -2.00482,4.13933 -3.33223,6.30969 -4.57955,7.48778 -1.43359,1.35399 -4.76634,2.26655 -7.26503,1.98925 -2.6582,-0.29499 -4.79064,-1.30247 -6.76817,-3.19767 -2.11889,-2.03067 -2.95391,-3.66507 -3.51512,-6.88036 -0.18103,-1.03705 -0.36257,-1.91901 -0.40347,-1.95989 -0.0409,-0.0409 -0.54033,1.01093 -1.10987,2.33739 -2.04312,4.75849 -4.31699,7.87224 -6.58193,9.0131 -1.74667,0.87979 -4.6459,1.17786 -7.15056,0.73516 -4.7719,-0.84343 -8.0135,-3.76569 -9.92729,-8.94932 l -0.57715,-1.56326 -0.90344,1.94974 c -1.40391,3.02977 -2.67139,4.84435 -3.99036,5.71271 -3.24027,2.13332 -8.60285,2.66374 -11.74611,1.16183 -1.30487,-0.62349 -3.4674,-2.84467 -4.1654,-4.27841 -0.30932,-0.63536 -0.7587,-2.11433 -0.99864,-3.28659 -0.23992,-1.17228 -0.46552,-2.16072 -0.50136,-2.19654 -0.0358,-0.0358 -0.5161,0.54903 -1.06729,1.2997 -1.71626,2.33741 -4.6236,4.92558 -6.64124,5.91211 -2.36036,1.15411 -4.01946,1.40443 -7.12989,1.07573 -2.87101,-0.3034 -4.52299,-0.79411 -7.19527,-2.13731 -2.49212,-1.25265 -3.8411,-2.41244 -5.16524,-4.44084 -1.03514,-1.58564 -2.34621,-4.45542 -2.34621,-5.13553 0,-0.70936 -0.37456,0.003 -1.92508,3.66063 -1.98053,4.67221 -2.34095,5.36818 -3.5739,6.90139 -2.2984,2.85811 -5.13494,4.79984 -8.12038,5.55874 -1.19295,0.30324 -5.14938,0.41055 -6.55426,0.17778 z m 86.86468,-9.77849 c 1.07128,-1.77258 3.75038,-7.48852 5.05465,-10.7843 0.65397,-1.65252 2.06588,-5.80528 3.13757,-9.22836 1.0717,-3.42308 2.14158,-6.69539 2.37757,-7.27182 0.53917,-1.31705 0.54134,-2.07541 0.009,-3.11899 -0.69468,-1.3617 -1.12715,-1.39228 -3.56088,-0.2518 -2.19208,1.02724 -3.51373,2.22656 -5.25448,4.76812 -4.61317,6.73541 -6.48116,15.75143 -4.68536,22.6143 0.37008,1.41432 1.72029,4.39956 1.98991,4.39956 0.1381,0 0.55754,-0.50702 0.93206,-1.12671 z m -114.40117,-3.05717 c 1.39756,-1.88554 2.45996,-3.79523 3.23857,-5.82148 1.05474,-2.74479 1.043,-2.81654 -0.59718,-3.64619 -5.30873,-2.68532 -7.2539,-10.55573 -3.77886,-15.28969 0.42586,-0.58012 0.77428,-1.19902 0.77428,-1.3753 0,-0.42773 -0.56608,-0.87809 -0.92876,-0.73891 -0.46024,0.1766 -1.98298,3.3039 -2.5816,5.3019 -1.04356,3.483 -1.27265,5.34316 -1.14977,9.33566 0.15233,4.94872 0.9948,9.1922 2.45889,12.38547 0.90191,1.96712 0.99838,1.96141 2.56443,-0.15146 z m 5.31736,-15.02608 c 0.31288,-3.33912 -0.99149,-7.47746 -1.53828,-4.88034 -0.26372,1.25261 -0.14253,3.35485 0.26543,4.60441 0.78557,2.4062 1.06748,2.46732 1.27285,0.27593 z m 59.68912,-2.70648 c 1.47866,-0.55323 2.74213,-1.65297 3.4065,-2.96503 0.61017,-1.20503 1.07556,-3.94729 0.88524,-5.21632 -0.2024,-1.34972 -1.21969,-3.37358 -2.22906,-4.43465 -1.0152,-1.06719 -1.27338,-1.01879 -2.46667,0.46238 -1.79573,2.22902 -3.36717,5.61853 -4.23932,9.14393 -0.57488,2.32389 -0.5135,2.53621 0.88996,3.07759 1.27699,0.4926 2.30494,0.47402 3.75335,-0.0679 z m -121.83468,-7.21726 c 0.20236,-0.77793 1.31096,-5.79784 3.35326,-15.18387 0.53935,-2.47878 1.21544,-5.5692 1.50244,-6.86761 0.28698,-1.29841 0.66457,-3.3265 0.83908,-4.50687 0.30464,-2.06069 0.29766,-2.24658 -0.17524,-4.66904 -0.27088,-1.3876 -0.55576,-2.58615 -0.63306,-2.66346 -0.60218,-0.60219 -2.7772,3.82124 -4.11439,8.36764 -1.87857,6.3871 -2.55368,10.54617 -2.53177,15.59736 0.0189,4.34836 0.83096,10.73065 1.36539,10.73065 0.10171,0 0.27915,-0.36216 0.39429,-0.8048 z M 47.23792,259.45264 c -4.4112,-0.96494 -7.71639,-4.12346 -8.96083,-8.56322 -0.30634,-1.09292 -0.37469,-2.74031 -0.4519,-10.89161 l -0.091,-9.60393 h 1.39791 1.39792 l 0.088,9.38932 c 0.0945,10.08766 0.11772,10.31541 1.28508,12.61276 0.62864,1.23718 2.27173,2.86186 3.5578,3.51797 2.37231,1.21027 6.32813,1.51202 8.81254,0.67226 2.8164,-0.952 5.22625,-3.23139 6.21761,-5.88102 0.73081,-1.95328 0.88824,-4.14855 0.88824,-12.38615 v -7.92514 h 1.28768 1.28768 v 14.48637 14.48638 H 62.67357 61.3925 l -0.0603,-2.61437 -0.0603,-2.61438 -0.59899,0.90619 c -1.36502,2.06502 -3.95138,3.7945 -6.61267,4.42184 -1.68603,0.39742 -4.9742,0.39104 -6.82241,-0.0133 z m 66.39963,0.0408 c -2.86972,-0.71107 -4.27322,-2.15887 -5.05464,-5.21417 -0.38472,-1.50424 -0.41799,-2.42592 -0.41799,-11.5795 v -9.94517 h -3.11188 -3.11189 v -1.18037 -1.18037 h 3.11189 3.11188 v -4.19169 c 0,-3.16629 0.0656,-4.21184 0.26827,-4.27412 0.14755,-0.0453 0.77529,-0.13435 1.39498,-0.19777 l 1.12672,-0.11533 v 4.38945 4.38946 h 4.9361 4.9361 v 1.18037 1.18037 h -4.9361 -4.9361 v 10.04786 c 0,8.3003 0.0559,10.23613 0.32147,11.13036 0.40444,1.36189 0.97902,2.09696 2.11321,2.70346 1.24807,0.6674 4.22538,0.65697 5.93523,-0.0208 0.6492,-0.25734 1.24091,-0.46792 1.3149,-0.46798 0.14751,-1.1e-4 1.11803,2.1566 1.00712,2.23807 -0.26017,0.19109 -2.60321,1.00885 -3.39509,1.18496 -1.28088,0.28488 -3.28874,0.25131 -4.61418,-0.0771 z m 24.40955,0.0788 c -3.19058,-0.57312 -5.51961,-1.78403 -7.7973,-4.05397 -3.00872,-2.99847 -4.20763,-6.44002 -4.00494,-11.4965 0.17214,-4.29453 1.38927,-7.16936 4.2251,-9.9795 2.83798,-2.81229 6.02012,-4.07764 10.25444,-4.07764 2.68738,0 4.79335,0.4336 6.822,1.40459 3.73197,1.78625 6.36563,5.05684 7.53911,9.36241 0.51469,1.88842 0.5246,6.42414 0.0182,8.33355 -1.33029,5.01589 -4.71855,8.53593 -9.70344,10.08082 -1.72408,0.5343 -5.52496,0.75462 -7.35317,0.42624 z m 5.57205,-2.80521 c 1.99093,-0.41804 4.14637,-1.5583 5.61926,-2.97264 2.28931,-2.19833 3.31983,-4.59937 3.50492,-8.16633 0.30096,-5.8 -2.45094,-10.2926 -7.55767,-12.33824 -1.18432,-0.47443 -1.95683,-0.62292 -3.64978,-0.70162 -3.74539,-0.17411 -6.65169,0.90277 -9.13303,3.38413 -2.31252,2.31252 -3.46872,5.26791 -3.48492,8.90789 -0.0267,5.99884 3.30709,10.43719 8.86358,11.8003 1.46864,0.3603 4.3318,0.40272 5.83764,0.0865 z M 0,238.87109 v -20.49553 l 10.14046,0.003 c 11.18507,0.003 11.66426,0.0484 14.31406,1.34191 1.87949,0.91747 4.37497,3.40494 5.32503,5.30791 2.20759,4.42182 2.04264,10.01127 -0.41604,14.09756 -1.00265,1.6664 -2.99964,3.56738 -4.66285,4.43869 -2.75043,1.44085 -3.0343,1.47576 -12.8433,1.58002 l -8.85278,0.0941 v 7.06385 7.06386 H 1.50229 0 v -20.49553 z m 20.27718,3.21623 c 0.8242,-0.17458 1.99589,-0.56076 2.60377,-0.85815 1.53879,-0.75286 3.33679,-2.55097 4.13809,-4.13831 3.27963,-6.49694 0.003,-14.29999 -6.58772,-15.68613 -0.72118,-0.15169 -4.11729,-0.2392 -9.28201,-0.2392 H 3.00458 v 10.48025 c 0,5.76416 0.0644,10.54467 0.14307,10.62334 0.0787,0.0787 3.62786,0.14141 7.88703,0.13935 6.00478,-0.003 8.0805,-0.075 9.2425,-0.32115 z m 51.40354,2.79293 v -14.48637 h 1.38817 1.38818 l 0.0605,2.45378 0.0605,2.45378 0.96733,-1.21976 c 1.15251,-1.45325 3.093902,-2.80995 4.967742,-3.4716 1.91245,-0.67528 5.74424,-0.83555 7.99652,-0.33447 3.53908,0.78737 6.47528,2.96668 7.95449,5.904 1.34615,2.67309 1.39272,3.12979 1.39625,13.6904 l 0.003,9.49662 h -1.39498 -1.39499 v -9.29058 c 0,-10.09526 -0.0591,-10.71646 -1.22435,-12.85731 -2.36124,-4.33837 -8.81474,-5.90629 -13.94271,-3.38747 -2.51648,1.23609 -4.721102,4.41212 -5.211542,7.50787 -0.12355,0.77986 -0.22171,5.06203 -0.22262,9.71124 l -0.002,8.31625 h -1.39498 -1.39499 z m 144.00529,-29.00013 c -2.44088,-0.46946 -4.54093,-1.7198 -5.30697,-3.1597 -0.46472,-0.8735 -0.45322,-3.39174 0.0242,-5.29012 0.63671,-2.53198 2.02811,-3.23752 5.54107,-2.80972 2.60714,0.3175 3.6429,0.66832 4.99975,1.69345 1.52618,1.15307 1.72455,1.86153 1.30948,4.67652 -0.36754,2.49263 -0.98084,3.94253 -1.89644,4.48338 -0.64206,0.37928 -3.51302,0.62894 -4.67105,0.40619 z m -22.53436,-50.65944 c -17.17622,-1.25372 -34.2142,-8.34661 -47.44131,-19.74977 -15.74456,-13.57345 -25.41822,-31.64596 -28.23612,-52.751226 -0.44237,-3.3132 -0.62383,-12.809028 -0.3158,-16.525188 1.3392,-16.15618 6.8992,-30.73632 16.58444,-43.48979 19.12557,-25.1844798 50.69193,-37.2061097 81.83584,-31.1661098 23.49712,4.55699 43.94106,19.2657698 56.00087,40.2908598 4.53825,7.91202 8.02412,17.60075 9.54568,26.53167 0.84614,4.96647 1.15396,8.73187 1.15791,14.16445 0.004,5.47042 -0.21451,8.481478 -0.95765,13.198698 -3.58775,22.773596 -16.60598,43.073116 -35.8083,55.836336 -3.63138,2.41367 -5.73313,3.60964 -9.9098,5.63902 -9.15433,4.44794 -18.42679,7.00553 -28.82784,7.95147 -2.14344,0.19494 -11.27194,0.24155 -13.62792,0.0696 z"
     id="path891" />
  <text
     xml:space="preserve"
     id="text879"
     style="font-style:normal;font-weight:normal;font-size:192px;line-height:1.25;font-family:sans-serif;white-space:pre;shape-inside:url(#rect881);fill:#000000;fill-opacity:1;stroke:none;"
     transform="translate(-23.009168,-11.938136)" />
</svg>
