<?xml version="1.0" encoding="utf-8"?>
<!-- Generator: Adobe Illustrator 25.2.3, SVG Export Plug-In . SVG Version: 6.00 Build 0)  -->
<svg version="1.1" id="Capa_1" xmlns="http://www.w3.org/2000/svg" xmlns:xlink="http://www.w3.org/1999/xlink" x="0px" y="0px"
	 viewBox="0 0 43 43" style="enable-background:new 0 0 43 43;" xml:space="preserve">
<style type="text/css">
	.st0{fill:#F2E7F9;}
	.st1{fill:#6A3381;}
</style>
<circle class="st0" cx="21.5" cy="21.5" r="21.5"/>
<path class="st1" d="M28.5,23l-8.1,6.6c-0.9,0.8-2.4,0.1-2.4-1V15.4c0-0.3,0.1-0.5,0.2-0.7c0.2-0.2,0.4-0.4,0.6-0.5
	c0.3-0.1,0.5-0.1,0.8-0.1c0.3,0,0.5,0.2,0.8,0.3l8.1,6.6c0.2,0.1,0.3,0.3,0.4,0.5C29,21.6,29,21.8,29,22c0,0.2,0,0.4-0.1,0.6
	C28.8,22.7,28.7,22.9,28.5,23L28.5,23z"/>
</svg>
