<?xml version="1.0" encoding="utf-8"?>
<!-- Generator: Adobe Illustrator 25.2.3, SVG Export Plug-In . SVG Version: 6.00 Build 0)  -->
<svg version="1.1" id="Capa_1" xmlns="http://www.w3.org/2000/svg" xmlns:xlink="http://www.w3.org/1999/xlink" x="0px" y="0px"
	 viewBox="0 0 42.2 42.2" style="enable-background:new 0 0 42.2 42.2;" xml:space="preserve">
<style type="text/css">
	.st0{fill:#6A3381;}
</style>
<path class="st0" d="M16.1,15.3c1.2-1.4,3-2.3,5-2.3s3.8,0.9,5,2.3c0.8,0.9,1.3,2.1,1.4,3.3c0.2,1.2,0,2.4-0.6,3.6
	c-0.5,1.1-1.3,2-2.4,2.7c-1,0.7-2.2,1-3.5,1c-1.2,0-2.4-0.3-3.5-1c-1-0.7-1.9-1.6-2.4-2.7c-0.5-1.1-0.7-2.3-0.6-3.6
	C14.9,17.3,15.4,16.2,16.1,15.3L16.1,15.3z"/>
<path class="st0" d="M29.9,19.4c0-1.5-0.4-2.9-1-4.1h9.8c0.9,0,1.8,0.4,2.5,1s1,1.6,1,2.5v1.2c0,3.7-2.8,7.5-7.8,8.9
	c-0.5-0.9-1.3-1.7-2.2-2.2c-0.9-0.5-1.9-0.8-3-0.8h-2.2c0.9-0.8,1.6-1.8,2.1-2.9S29.9,20.6,29.9,19.4z"/>
<path class="st0" d="M29.3,28.2c0.5,0,0.9,0.1,1.3,0.3c0.4,0.2,0.8,0.4,1.1,0.8c0.3,0.3,0.6,0.7,0.8,1.1c0.2,0.4,0.3,0.9,0.3,1.3
	v1.2c0,4.6-4.4,9.4-11.7,9.4S9.4,37.5,9.4,32.8v-1.2c0-0.5,0.1-0.9,0.3-1.3c0.2-0.4,0.4-0.8,0.8-1.1c0.3-0.3,0.7-0.6,1.1-0.8
	c0.4-0.2,0.9-0.3,1.3-0.3H29.3z"/>
<path class="st0" d="M0,19.9c0,3.7,2.8,7.5,7.8,8.9c0.5-0.9,1.3-1.7,2.2-2.2c0.9-0.5,1.9-0.8,3-0.8h2.2c-0.9-0.8-1.6-1.8-2.1-2.9
	s-0.7-2.3-0.7-3.5c0-1.5,0.4-2.9,1-4.1H3.5c-0.9,0-1.8,0.4-2.5,1c-0.7,0.7-1,1.6-1,2.5V19.9z"/>
<path class="st0" d="M18.2,6.5c0-1.7-0.7-3.4-1.9-4.6C15.1,0.7,13.4,0,11.7,0S8.4,0.7,7.2,1.9C6,3.1,5.3,4.7,5.3,6.5
	C5.3,8.2,6,9.8,7.2,11c1.2,1.2,2.9,1.9,4.6,1.9s3.4-0.7,4.6-1.9C17.5,9.8,18.2,8.2,18.2,6.5z"/>
<path class="st0" d="M37,6.5c0-1.7-0.7-3.4-1.9-4.6C33.9,0.7,32.2,0,30.5,0c-1.7,0-3.4,0.7-4.6,1.9c-1.2,1.2-1.9,2.9-1.9,4.6
	c0,1.7,0.7,3.4,1.9,4.6c1.2,1.2,2.9,1.9,4.6,1.9c1.7,0,3.4-0.7,4.6-1.9C36.3,9.8,37,8.2,37,6.5z"/>
</svg>
