<svg id="ef162bfe-58c1-4b12-9971-5e8ce3bc71cb" data-name="Capa 1" xmlns="http://www.w3.org/2000/svg" viewBox="0 0 40 40"><defs><style>.f3201ac5-9bd6-4d19-8640-4bbae7d004a9{fill:#6a3381;fill-rule:evenodd;}</style></defs><path class="f3201ac5-9bd6-4d19-8640-4bbae7d004a9" d="M11.11,20a8.88,8.88,0,1,1,2.6,6.29A8.93,8.93,0,0,1,11.11,20ZM20,22.22a2.22,2.22,0,1,1,1.57-.65A2.21,2.21,0,0,1,20,22.22Z"/><path class="f3201ac5-9bd6-4d19-8640-4bbae7d004a9" d="M0,20A20,20,0,1,1,5.86,34.14,20,20,0,0,1,0,20ZM20,35.56A15.57,15.57,0,1,1,31,31,15.56,15.56,0,0,1,20,35.56Z"/></svg>