<?xml version="1.0" encoding="utf-8"?>
<!-- Generator: Adobe Illustrator 25.2.3, SVG Export Plug-In . SVG Version: 6.00 Build 0)  -->
<svg version="1.1" id="Capa_1" xmlns="http://www.w3.org/2000/svg" xmlns:xlink="http://www.w3.org/1999/xlink" x="0px" y="0px"
	 viewBox="0 0 43 43" style="enable-background:new 0 0 43 43;" xml:space="preserve">
<style type="text/css">
	.st0{fill:#F2E7F9;}
	.st1{fill:#6A3381;}
</style>
<circle class="st0" cx="21.5" cy="21.5" r="21.5"/>
<path class="st1" d="M15.5,20l8.1-6.6c0.9-0.8,2.4-0.1,2.4,1v13.2c0,0.3-0.1,0.5-0.2,0.7c-0.2,0.2-0.4,0.4-0.6,0.5
	C24.9,29,24.6,29,24.3,29c-0.3,0-0.5-0.2-0.8-0.3L15.5,22c-0.2-0.1-0.3-0.3-0.4-0.5C15,21.4,15,21.2,15,21c0-0.2,0-0.4,0.1-0.6
	C15.2,20.3,15.3,20.1,15.5,20L15.5,20z"/>
</svg>
