<?xml version="1.0" encoding="utf-8"?>
<!-- Generator: Adobe Illustrator 25.2.3, SVG Export Plug-In . SVG Version: 6.00 Build 0)  -->
<svg version="1.1" id="Capa_1" xmlns="http://www.w3.org/2000/svg" xmlns:xlink="http://www.w3.org/1999/xlink" x="0px" y="0px"
	 viewBox="0 0 20 20" style="enable-background:new 0 0 20 20;" xml:space="preserve">
<style type="text/css">
	.st0{fill:#C27EDF;}
</style>
<path class="st0" d="M11,6c0.8,0,1.6,0.3,2.1,0.9S14,8.2,14,9c0,0.3,0.1,0.5,0.3,0.7C14.5,9.9,14.7,10,15,10s0.5-0.1,0.7-0.3
	C15.9,9.5,16,9.3,16,9c0-1.3-0.5-2.6-1.5-3.5C13.6,4.5,12.3,4,11,4c-0.3,0-0.5,0.1-0.7,0.3C10.1,4.5,10,4.7,10,5s0.1,0.5,0.3,0.7
	C10.5,5.9,10.7,6,11,6z"/>
<path class="st0" d="M11,2c1.9,0,3.6,0.7,4.9,2.1C17.3,5.4,18,7.1,18,9c0,0.3,0.1,0.5,0.3,0.7C18.5,9.9,18.7,10,19,10
	s0.5-0.1,0.7-0.3C19.9,9.5,20,9.3,20,9c0-2.4-0.9-4.7-2.6-6.4C15.7,0.9,13.4,0,11,0c-0.3,0-0.5,0.1-0.7,0.3C10.1,0.5,10,0.7,10,1
	c0,0.3,0.1,0.5,0.3,0.7C10.5,1.9,10.7,2,11,2z M19.8,13.9c-0.1-0.2-0.1-0.3-0.3-0.4c-0.1-0.1-0.3-0.2-0.4-0.2l-6-1.4
	c-0.2,0-0.3,0-0.5,0c-0.2,0-0.3,0.1-0.4,0.2c-0.1,0.1-0.1,0.1-0.8,1.4c-2.2-1-3.9-2.7-4.9-4.9C7.7,8,7.7,8,7.8,7.8
	C8,7.7,8.1,7.6,8.1,7.4c0-0.2,0-0.3,0-0.5L6.7,1c0-0.2-0.1-0.3-0.2-0.4C6.4,0.4,6.3,0.3,6.1,0.3C5.9,0.2,5.6,0.1,5.4,0.1
	C5.1,0,4.9,0,4.6,0C3.4,0,2.2,0.5,1.3,1.3C0.5,2.2,0,3.4,0,4.6c0,4.1,1.6,8,4.5,10.9S11.3,20,15.4,20c0.6,0,1.2-0.1,1.8-0.4
	c0.6-0.2,1.1-0.6,1.5-1c0.4-0.4,0.8-0.9,1-1.5c0.2-0.6,0.4-1.2,0.4-1.8c0-0.3,0-0.5-0.1-0.8C19.9,14.4,19.8,14.1,19.8,13.9z"/>
</svg>
