<?xml version="1.0" encoding="utf-8"?>
<!-- Generator: Adobe Illustrator 25.2.3, SVG Export Plug-In . SVG Version: 6.00 Build 0)  -->
<svg version="1.1" id="Capa_1" xmlns="http://www.w3.org/2000/svg" xmlns:xlink="http://www.w3.org/1999/xlink" x="0px" y="0px"
	 viewBox="0 0 40 40" style="enable-background:new 0 0 40 40;" xml:space="preserve">
<style type="text/css">
	.st0{fill:#6A3381;}
</style>
<path class="st0" d="M27.5,16.2c0-0.3,0.1-0.6,0.4-0.9c0.2-0.2,0.6-0.4,0.9-0.4h2.5c0.3,0,0.6,0.1,0.9,0.4c0.2,0.2,0.4,0.6,0.4,0.9
	v2.5c0,0.3-0.1,0.6-0.4,0.9c-0.2,0.2-0.6,0.4-0.9,0.4h-2.5c-0.3,0-0.6-0.1-0.9-0.4s-0.4-0.6-0.4-0.9V16.2z M20,16.2
	c0-0.3,0.1-0.6,0.4-0.9c0.2-0.2,0.6-0.4,0.9-0.4h2.5c0.3,0,0.6,0.1,0.9,0.4c0.2,0.2,0.4,0.6,0.4,0.9v2.5c0,0.3-0.1,0.6-0.4,0.9
	S24.1,20,23.8,20h-2.5c-0.3,0-0.6-0.1-0.9-0.4S20,19.1,20,18.8V16.2z M7.5,23.8c0-0.3,0.1-0.6,0.4-0.9c0.2-0.2,0.6-0.4,0.9-0.4h2.5
	c0.3,0,0.6,0.1,0.9,0.4c0.2,0.2,0.4,0.6,0.4,0.9v2.5c0,0.3-0.1,0.6-0.4,0.9c-0.2,0.2-0.6,0.4-0.9,0.4H8.8c-0.3,0-0.6-0.1-0.9-0.4
	c-0.2-0.2-0.4-0.6-0.4-0.9V23.8z M15,23.8c0-0.3,0.1-0.6,0.4-0.9c0.2-0.2,0.6-0.4,0.9-0.4h2.5c0.3,0,0.6,0.1,0.9,0.4
	s0.4,0.6,0.4,0.9v2.5c0,0.3-0.1,0.6-0.4,0.9s-0.6,0.4-0.9,0.4h-2.5c-0.3,0-0.6-0.1-0.9-0.4c-0.2-0.2-0.4-0.6-0.4-0.9V23.8z"/>
<path class="st0" d="M8.8,0c0.3,0,0.6,0.1,0.9,0.4C9.9,0.6,10,0.9,10,1.2v1.2h20V1.2c0-0.3,0.1-0.6,0.4-0.9C30.6,0.1,30.9,0,31.2,0
	s0.6,0.1,0.9,0.4c0.2,0.2,0.4,0.6,0.4,0.9v1.2H35c1.3,0,2.6,0.5,3.5,1.5C39.5,4.9,40,6.2,40,7.5V35c0,1.3-0.5,2.6-1.5,3.5
	C37.6,39.5,36.3,40,35,40H5c-1.3,0-2.6-0.5-3.5-1.5C0.5,37.6,0,36.3,0,35V7.5C0,6.2,0.5,4.9,1.5,4C2.4,3,3.7,2.5,5,2.5h2.5V1.2
	c0-0.3,0.1-0.6,0.4-0.9C8.1,0.1,8.4,0,8.8,0L8.8,0z M2.5,10v25c0,0.7,0.3,1.3,0.7,1.8c0.5,0.5,1.1,0.7,1.8,0.7h30
	c0.7,0,1.3-0.3,1.8-0.7c0.5-0.5,0.7-1.1,0.7-1.8V10H2.5z"/>
</svg>
