<svg width="15" height="20" viewBox="0 0 15 20" fill="none" xmlns="http://www.w3.org/2000/svg">
<path d="M7.5 8.125C7.66576 8.125 7.82473 8.19085 7.94194 8.30806C8.05915 8.42527 8.125 8.58424 8.125 8.75V10.625H10C10.1658 10.625 10.3247 10.6908 10.4419 10.8081C10.5592 10.9253 10.625 11.0842 10.625 11.25C10.625 11.4158 10.5592 11.5747 10.4419 11.6919C10.3247 11.8092 10.1658 11.875 10 11.875H8.125V13.75C8.125 13.9158 8.05915 14.0747 7.94194 14.1919C7.82473 14.3092 7.66576 14.375 7.5 14.375C7.33424 14.375 7.17527 14.3092 7.05806 14.1919C6.94085 14.0747 6.875 13.9158 6.875 13.75V11.875H5C4.83424 11.875 4.67527 11.8092 4.55806 11.6919C4.44085 11.5747 4.375 11.4158 4.375 11.25C4.375 11.0842 4.44085 10.9253 4.55806 10.8081C4.67527 10.6908 4.83424 10.625 5 10.625H6.875V8.75C6.875 8.58424 6.94085 8.42527 7.05806 8.30806C7.17527 8.19085 7.33424 8.125 7.5 8.125Z" fill="#6A3381"/>
<path d="M15 5.625V17.5C15 18.163 14.7366 18.7989 14.2678 19.2678C13.7989 19.7366 13.163 20 12.5 20H2.5C1.83696 20 1.20107 19.7366 0.732233 19.2678C0.263392 18.7989 0 18.163 0 17.5V2.5C0 1.83696 0.263392 1.20107 0.732233 0.732233C1.20107 0.263392 1.83696 0 2.5 0L9.375 0L15 5.625ZM11.25 5.625C10.7527 5.625 10.2758 5.42746 9.92417 5.07583C9.57254 4.72419 9.375 4.24728 9.375 3.75V1.25H2.5C2.16848 1.25 1.85054 1.3817 1.61612 1.61612C1.3817 1.85054 1.25 2.16848 1.25 2.5V17.5C1.25 17.8315 1.3817 18.1495 1.61612 18.3839C1.85054 18.6183 2.16848 18.75 2.5 18.75H12.5C12.8315 18.75 13.1495 18.6183 13.3839 18.3839C13.6183 18.1495 13.75 17.8315 13.75 17.5V5.625H11.25Z" fill="#6A3381"/>
</svg>
