<?xml version="1.0" encoding="utf-8"?>
<!-- Generator: Adobe Illustrator 25.2.3, SVG Export Plug-In . SVG Version: 6.00 Build 0)  -->
<svg version="1.1" id="Capa_1" xmlns="http://www.w3.org/2000/svg" xmlns:xlink="http://www.w3.org/1999/xlink" x="0px" y="0px"
	 viewBox="0 0 60 60" style="enable-background:new 0 0 60 60;" xml:space="preserve">
<style type="text/css">
	.st0{fill:#6A3381;}
</style>
<path class="st0" d="M59.5,44.9l-27-43.5c-0.3-0.4-0.6-0.8-1.1-1C31,0.1,30.5,0,30,0s-1,0.1-1.5,0.4c-0.4,0.2-0.8,0.6-1.1,1
	l-27,43.5c-0.9,1.5-0.4,3.7,1.5,4.4l27,10.5C29.3,60,29.6,60,30,60s0.7,0,1.1-0.2l27-10.5C60,48.5,60.5,46.4,59.5,44.9z M27,13.5V34
	l-16.7,6.5L27,13.5z M30,53.8l-18.7-7.3L30,39.2l18.7,7.3L30,53.8z M33,34V13.5l16.7,27L33,34z"/>
</svg>
