<svg xmlns="http://www.w3.org/2000/svg" viewBox="0 0 752.05 349.84"><defs><style>.cls-1{fill:#fff;}</style></defs><g id="Layer_2" data-name="Layer 2"><g id="Layer_1-2" data-name="Layer 1"><path class="cls-1" d="M752.05,338.34c-3.76,3.14,0,8.26-2.85,11.37q-373.53-145.53-747.46.13C1.19,344,.42,338,.14,331.93S.08,319.56.08,312.7c16.27-7.46,33.48-13.78,50.74-19.94a923.33,923.33,0,0,1,214.32-49c49.37-5.22,98.92-4.28,148.44-3.76,117.79,1.25,230.22,27.46,338.47,72.92Z"/><path class="cls-1" d="M267.5,84.63c-9.25,6.4-19.71,7.08-31.33,8.15,9.69,9.85,17.67,20.13,22.47,32.41a99.16,99.16,0,0,1,7.17,39.33H235.74a135.6,135.6,0,0,0-2.26-15.65c-4.71-22.1-18.3-36.47-38.94-44.51C165.69,93.13,135.42,94.29,104.3,93.7v70.74H73.1V93.86C61.91,91,51.41,93.49,40.53,92.23V62H72.39V10.92C137.84-3.6,202.5-3.46,267.5,10.62ZM236.86,37.28c-44.28-5.61-88.14-6.51-132.76.52.53,8.63.87,16.25.87,23.63H236.86Z"/><path class="cls-1" d="M328,37.83V61.65h127.6V95H328.21v32.19c27.13,4.33,53.91,4.9,80.73,4.18a371.62,371.62,0,0,0,80.28-10.82V153c-34.64,15.74-149.89,15.95-190.85.43-1.39-6.23-1.84-129.59-.32-142.88C361.61-3.66,425.39-3.28,489.4,10.45v34C435.72,32.14,382.23,30.66,328,37.83Z"/><path class="cls-1" d="M602.55,34.43a290.66,290.66,0,0,0-82.2,10.82v-35c64.59-13.69,129.09-13.57,194.33,0V45C687.6,38.48,661,34.12,632.82,34.46V164.1H602.55Z"/></g></g></svg>