<svg xmlns="http://www.w3.org/2000/svg" viewBox="0 0 450.84 319.71"><defs><style>.cls-1{fill:#fff;}</style></defs><g id="Layer_2" data-name="Layer 2"><g id="Layer_1-2" data-name="Layer 1"><path class="cls-1" d="M315.88,92.58A92.57,92.57,0,1,1,223.31,0,92.58,92.58,0,0,1,315.88,92.58Z"/><path class="cls-1" d="M230.4,222.25s0,.3-.07.91-.06,1.06-.06,1.31a10.3,10.3,0,0,1,.13,1.85,28,28,0,0,1-.52,5c-.33,1.86-.59,3.15-.76,3.89l-3.55,18.29A98.18,98.18,0,0,1,222.28,266a6.13,6.13,0,0,0-.39,1.48,4.19,4.19,0,0,0,1,1.6l1.91,1.86a1.1,1.1,0,0,0,1.39,0l1.52-1.11a25.39,25.39,0,0,0,6-6.92,4,4,0,0,1,1.71-1.8,4.54,4.54,0,0,1,2.47-.43,4.4,4.4,0,0,1,1.27.25,1.39,1.39,0,0,1,.88,1.73.41.41,0,0,0-.12.31.35.35,0,0,1-.13.3l-1.77,3a53,53,0,0,1-2.92,4.46,16.07,16.07,0,0,1-9.51,5.43,14.58,14.58,0,0,1-2.15.12A33.39,33.39,0,0,1,220,276h-.63c-.35,0-.56.25-.64.74l-4.56,11.12a31.56,31.56,0,0,1-1.78,3.46,4.13,4.13,0,0,1-2.53,2.47,13.94,13.94,0,0,1-6.21,1.37,28.88,28.88,0,0,1-2.92-.25,4.63,4.63,0,0,1-3.3-2.23,61,61,0,0,1-6.71-14.58,133,133,0,0,1-4.19-18l-2.91-18.29a106,106,0,0,1-1.14-14.09q0-2.46-.25-7.4l-.13-3.71v-1.24a2.75,2.75,0,0,1,2.54-3.09,12.25,12.25,0,0,1,2-.11,12.87,12.87,0,0,1,7.23,2.09,3.58,3.58,0,0,1,1.77,3.21l.38,7.79.13,3.08c.08,1,.18,2.46.32,4.39s.27,3.61.44,5a36.1,36.1,0,0,0,.5,3.83c.26,1.41.42,2.44.51,3.1l.51,3.21c.33,2.22,1.06,6.25,2.15,12.11a99.24,99.24,0,0,0,4.7,18.65,18.15,18.15,0,0,0,.88,2.22l.38.37.26-.25a.69.69,0,0,0,.25-.49l3.8-8.27a7,7,0,0,0,.25-1.24,3.24,3.24,0,0,0-.37-1.48,40.68,40.68,0,0,1-2.92-9,67.41,67.41,0,0,1-1.52-14.21A76.43,76.43,0,0,1,211,220a30.31,30.31,0,0,1,2.79-5.56,9.19,9.19,0,0,1,6.34-4,5,5,0,0,1,1.26-.12,8.12,8.12,0,0,1,4.18,1.11,7.18,7.18,0,0,1,2.92,3.21,16.65,16.65,0,0,1,1.78,6.92C230.35,222,230.4,222.25,230.4,222.25Zm-7.93,2.89c.21-1.43.35-2.52.44-3.27-.09-.82-.42-2.63-1-5.44v-.12l-.24-.24a.77.77,0,0,0-.51.12,26.12,26.12,0,0,0-3,6.18c-1,3.29-1.74,5.76-2.16,7.41a55,55,0,0,0-1.65,12.85,67.68,67.68,0,0,0,.89,10,11.2,11.2,0,0,0,.64,2.35,2.73,2.73,0,0,0,.5-1.23,6.89,6.89,0,0,0,.13-1l.25-.74,5.07-23.23A36.29,36.29,0,0,0,222.47,225.14Z"/><path class="cls-1" d="M266.52,262.15l-.38,1.48-4.56,14.7a17.53,17.53,0,0,1-1.91,4q-3.67,6.42-4.18,7.28a14.22,14.22,0,0,1-1.33,1.85,16.74,16.74,0,0,1-1.33,1.48,8.92,8.92,0,0,1-6.21,2.85,15.23,15.23,0,0,1-9.13-2.23,5.82,5.82,0,0,1-2.79-3.95,54.39,54.39,0,0,1-.63-7.78c-.09-1.41-.13-3.46-.13-6.17,0-3.13.08-6.62.25-10.44s.31-6.53.39-8.09l.25-4.33v-.25a3.79,3.79,0,0,1,.76-2.29,3.52,3.52,0,0,1,2.28-.8,12.12,12.12,0,0,1,2-.12,12.89,12.89,0,0,1,5.7,1.23c.17.08.77.42,1.78,1a2.83,2.83,0,0,1,1.15,2.72l-.39,8.52-.13,4.08h.13l-.13,3.59q-.25,4.68-.25,7t.25,6.79l.13,3.09c0,.17.13.37.39.62l.5-.25.5-.61,2.67-4.45,1.64-2.72a28.59,28.59,0,0,0,1.2-2.6c.3-.74.53-1.36.71-1.85l4.05-8.9c.25-.57.51-1.23.76-2A21.58,21.58,0,0,1,261.7,262a2.48,2.48,0,0,1,2.54-1.86,3.29,3.29,0,0,1,1.39.37A1.58,1.58,0,0,1,266.52,262.15Zm-31.69-26.94a14.87,14.87,0,0,1,.18-1.66c.13-.79.28-1.5.45-2.17a3.62,3.62,0,0,1,2.92-2.59,6.9,6.9,0,0,1,1.52-.13,22,22,0,0,1,3.8.5,8.82,8.82,0,0,1,3.55,1.6,3.55,3.55,0,0,1,1.65,3.1,12.31,12.31,0,0,1-.19,2.1c-.13.74-.24,1.36-.32,1.85a4.85,4.85,0,0,1-.63,1.73,2.71,2.71,0,0,1-2,1.85c-1.27.24-1.94.37-2,.37a14.45,14.45,0,0,1-5.83-1.35A5,5,0,0,1,234.83,235.21Z"/><path class="cls-1" d="M305.82,262.76a16.12,16.12,0,0,1-3.3,3.83,25.64,25.64,0,0,1-7.73,5.07,2.05,2.05,0,0,0-1.4,1.85,34.9,34.9,0,0,1-2.79,7.78,25.6,25.6,0,0,1-3.67,5.57,12.1,12.1,0,0,1-6.09,3.58,26.36,26.36,0,0,1-5.45.61,23.74,23.74,0,0,1-4.06-.37,9.77,9.77,0,0,1-7-5.18,24.68,24.68,0,0,1-2.78-7.29,46.23,46.23,0,0,1-1.41-11.87,54.28,54.28,0,0,1,1.66-11.49,22,22,0,0,1,6.08-10.24q2.54-2.48,7.36-2.48a19.77,19.77,0,0,1,8.74,2.1l1.9,1.12a7.77,7.77,0,0,1,3.55,6.29,4.61,4.61,0,0,0,.89,2.47,17.69,17.69,0,0,1,3.55,8.9l.38,3.95c0,.5.21.62.63.37a27.51,27.51,0,0,0,3.61-2.4,9.34,9.34,0,0,0,2.35-2.78,2.89,2.89,0,0,1,2.67-1.24,3.6,3.6,0,0,1,2.15.5A1,1,0,0,1,305.82,262.76ZM284.33,272c0-.09-.28-.21-.7-.38a9.16,9.16,0,0,1-3.93-2.72,12.1,12.1,0,0,1-2.79-5.19,16.19,16.19,0,0,1-.37-3.45,9.64,9.64,0,0,1,2.41-6.68c.33-.33.5-.59.5-.8a2.19,2.19,0,0,0-.38-.93c-.26-.33-.55-.33-.89,0a19.26,19.26,0,0,0-2.15,4.2,31.87,31.87,0,0,0-1.91,10.38,45.72,45.72,0,0,0,2.28,14.33,7.09,7.09,0,0,0,.64,1.36,6,6,0,0,1,.63,1.36c.09.25.3.29.63.13l.39-.37a26.14,26.14,0,0,0,5.58-10.63A1.21,1.21,0,0,0,284.33,272Zm1.46-8.41a13,13,0,0,0-.89-4.82l-.38-.24c-.17,0-.25.12-.25.36a9.05,9.05,0,0,0-.38,2.73,11.42,11.42,0,0,0,1.14,4.81l.5.49C285.7,265.32,285.79,264.21,285.79,263.63Z"/><path class="cls-1" d="M336.62,260.54a1.59,1.59,0,0,1,1.39.55,1.64,1.64,0,0,1,.13,1.43A68,68,0,0,1,334,275.37q-1.14,2.46-3.18,7.41-1.14,2.73-2,4.45A18.09,18.09,0,0,1,318.12,296a17.28,17.28,0,0,1-4.32.49,18.47,18.47,0,0,1-6.84-1.35,9,9,0,0,1-3.8-3.1,22.71,22.71,0,0,1-3.18-9,59,59,0,0,1-.25-6.43v-4.32c0-3.62,0-6.35.13-8.16q0-5.31.25-15.44H300l-.12-6.05q0-8.65.25-25.95v-.74a2.09,2.09,0,0,1,1.39-2,8.7,8.7,0,0,1,1.78-.49,14,14,0,0,1,8.37,1.85,4,4,0,0,1,2,3.59c0,7.9,0,13.84.13,17.79l.12,17.29q0,5.2-.25,15.07v9.15a42.3,42.3,0,0,0,1,7.66,8.66,8.66,0,0,0,3,4.07,1,1,0,0,0,.89-.12l1-1c1-1.31,1.74-2.3,2.16-3L330,269.93q1.14-2.34,3.18-7a3.54,3.54,0,0,1,2.91-2.35Z"/><path class="cls-1" d="M374.14,261.9a3.3,3.3,0,0,1-.13,1c-.85,3.13-1.56,5.48-2.15,7a56.9,56.9,0,0,1-2.67,6.3,31.71,31.71,0,0,1-6.59,9.89,17.63,17.63,0,0,1-4.69,3.7,11.91,11.91,0,0,1-6.08,1.48,21.34,21.34,0,0,1-8.5-1.73l-3.67-1.85a10.62,10.62,0,0,1-2.47-2.1,20.1,20.1,0,0,1-2.22-3.21,19.46,19.46,0,0,1-2.41-7c-.34-3-.55-5.19-.63-6.68l.12-2a50.29,50.29,0,0,1,2.28-13.21,8.81,8.81,0,0,1,.7-1.86,8.53,8.53,0,0,0,.7-1.85,15,15,0,0,1,4.31-5.56,13.72,13.72,0,0,1,3.81-2.1,17.26,17.26,0,0,1,4.94-.74,22.32,22.32,0,0,1,2.79.24,20.69,20.69,0,0,1,4.43,1.24,10.37,10.37,0,0,1,5.83,4.46,12.9,12.9,0,0,1,2.16,7.16,11.26,11.26,0,0,1-2.1,7,10.94,10.94,0,0,1-6,3.9,15.73,15.73,0,0,1-4.05.62,22,22,0,0,1-3.68-.5l-1.39-.37c-.43-.08-.63.08-.63.49a16.54,16.54,0,0,1-.19,1.8,7.78,7.78,0,0,0-.07,2.17,38.36,38.36,0,0,0,.89,7.28,12.51,12.51,0,0,0,2.15,4.7q1.14,1.72,2.54,3.58l.76.86a1.94,1.94,0,0,0,1.14.5,1.61,1.61,0,0,0,.88-.37,39.5,39.5,0,0,0,3.93-3.46,39.94,39.94,0,0,0,7.23-11q3.17-6.8,4.18-9.51a2.34,2.34,0,0,1,2.54-1.61,3.37,3.37,0,0,1,1.52.37A.89.89,0,0,1,374.14,261.9Zm-26.87-.37a5.93,5.93,0,0,0,3,1,3.44,3.44,0,0,0,1-.12,7.06,7.06,0,0,0,5.46-4.7l.62-3.21a9.2,9.2,0,0,0-2.65-6.67c-.43-.49-.76-.74-1-.74s-.63.25-1.14.74c-.09.08-.5.61-1.27,1.6a41.19,41.19,0,0,0-2.15,3.83,31.54,31.54,0,0,0-2.16,6.92C346.84,260.83,346.92,261.29,347.27,261.53Z"/><path class="cls-1" d="M396.83,262.52c-.17.82-.34,1.6-.51,2.35s-.34,1.52-.51,2.34a114,114,0,0,1-3.55,12.85,59.47,59.47,0,0,1-4.05,8.77,8.76,8.76,0,0,1-4.19,3.58,17.23,17.23,0,0,1-6.46,1.36,14.69,14.69,0,0,1-3.29-.37,10,10,0,0,1-6-4.7,9.33,9.33,0,0,1-1.26-2.95c-.26-1.08-.51-2.39-.76-4-.34-4-.51-7-.51-9l.13-15.69c0-2.48,0-4.33.12-5.57l.13-5.55a3.52,3.52,0,0,0,.13-1.12,1.73,1.73,0,0,0-.19-1,1.59,1.59,0,0,0-1-.19c-.25,0-.63,0-1.13.07a3.87,3.87,0,0,1-1.27-.07,7.55,7.55,0,0,1-3.55-1.11c-.59-.41-.89-.82-.89-1.23s.34-.7,1-1.11a12.82,12.82,0,0,1,3.16-1c.77-.17,1.82-.33,3.17-.5a2.27,2.27,0,0,0,.89-.24,2,2,0,0,0,.25-.87c.18-2.79.34-4.89.51-6.3l.38-3.95a2.68,2.68,0,0,1,2.41-2.59l2-.13a15.85,15.85,0,0,1,7.22,2l1.27,1a1.61,1.61,0,0,1,.63,1.73c0,.83-.08,2.07-.25,3.71l-.38,4.45c0,.58.06.93.19,1.05a2.86,2.86,0,0,0,1.08.43l2.66.25.13-.25a28.36,28.36,0,0,1,3,.5l1,.49a1.35,1.35,0,0,1,.51.86,1.12,1.12,0,0,1-.63,1c-.17.08-.47.21-.89.37a8.25,8.25,0,0,1-1.14.37l-4.95.62a4.1,4.1,0,0,0-1.2.25c-.13.09-.19.46-.19,1.12l-.38,15.68c-.09,2-.13,5-.13,9.15l.25,9.14a22.46,22.46,0,0,0,1.27,6.17,8.36,8.36,0,0,0,.51.87h.51l.64-.87a36.81,36.81,0,0,0,4.3-8.15l4.44-12.6.13-.63a4.68,4.68,0,0,1,1.45-1.91,3.38,3.38,0,0,1,2.22-.43C396.62,260.91,397.08,261.45,396.83,262.52Z"/><path class="cls-1" d="M450.82,262.4c-.08.9-.29,2.26-.62,4.07s-.82,4.08-1.41,6.8a30.22,30.22,0,0,1-1.9,6.17l-1.64,3.47q-1.28,2.83-2.41,4.93a16.3,16.3,0,0,1-.95,1.61c-.38.58-.7,1-.95,1.35q-2.54,3.84-8.37,3.84a12.09,12.09,0,0,1-8.3-3.22,12.23,12.23,0,0,1-4.24-7.53l-.51-3c-.6,1.33-.93,2.07-1,2.23a28.54,28.54,0,0,1-4.31,7.9,10.65,10.65,0,0,1-3.92,3.1,15.29,15.29,0,0,1-4.7.74,14.41,14.41,0,0,1-2.15-.13,12.73,12.73,0,0,1-6.09-2.35,11.21,11.21,0,0,1-3.17-3.08,26.93,26.93,0,0,1-4.18-15.2,43.79,43.79,0,0,1,5.2-20.14q3.81-7.29,12.55-9a42.26,42.26,0,0,1,4.82-.62,24.44,24.44,0,0,1,7.73,1.48l.88.37a4.64,4.64,0,0,0,1.27.5,1.79,1.79,0,0,0,1.14-.62,3.68,3.68,0,0,1,1.91-.74,9.77,9.77,0,0,1,6.2,1.36,3,3,0,0,1,1.9,2.59,16,16,0,0,1,.26,3.33,25.08,25.08,0,0,1-.13,2.85,116.43,116.43,0,0,0-1.14,14.58c0,1.32.08,3.45.26,6.42a54.16,54.16,0,0,0,1.89,10.5.23.23,0,0,0,.26.25.79.79,0,0,0,.51-.12c1.18-1.82,2-3.22,2.53-4.2a83.34,83.34,0,0,0,5.08-12.36,61.44,61.44,0,0,1,3.41-8.15,2.55,2.55,0,0,1,2.41-1.49,4.52,4.52,0,0,1,1.28.25A1.08,1.08,0,0,1,450.82,262.4ZM420,253a4.25,4.25,0,0,0-.89-2.47,1.22,1.22,0,0,0-1.52-.36,12.53,12.53,0,0,0-6.22,3.94,31.91,31.91,0,0,0-5.32,9.14,37.5,37.5,0,0,0-2.41,12.37,29.94,29.94,0,0,0,1.14,6.92c.26.74.72,1.85,1.4,3.33.17.41.33.63.51.67s.33-.14.5-.55a11.9,11.9,0,0,0,1.52-2.59,106.13,106.13,0,0,0,6.72-15.94l3-9.76a16.89,16.89,0,0,1,1.14-3.21A3.19,3.19,0,0,0,420,253Z"/><path class="cls-1" d="M3.56,274.25v15.92H0V244.12H20.2c20,0,20,30.13,0,30.13Zm0-26.84V271H20.2c15.32,0,15.32-23.62,0-23.62Z"/><path class="cls-1" d="M68.6,290.17v-5.86c-2.5,4.48-7,6.32-11.58,6.39-8.68,0-14.67-5.33-14.67-14.34V257.61h3.23v18.68c0,7.37,4.53,11.31,11.58,11.25,6.7-.07,11.38-5.13,11.38-11.84V257.61h3.21v32.56Z"/><path class="cls-1" d="M83.39,257.68v5.78c2.5-4.47,7-6.31,11.58-6.37,8.68,0,14.66,5.32,14.66,14.34v18.74h-3.22V271.49c0-7.37-4.54-11.32-11.58-11.25-6.7.06-11.37,5.13-11.37,11.85v18.08H80.23V257.68Z"/><path class="cls-1" d="M124.1,247.88v9.8h11.06v2.69H124.1v19.81c0,4.4.91,7.49,6,7.49a12.11,12.11,0,0,0,5-1.32L136.2,289a14.16,14.16,0,0,1-6.12,1.64c-6.9,0-9.14-4.08-9.14-10.45V260.37H114v-2.69h6.91v-9.47Z"/><path class="cls-1" d="M141.06,274c0-10.33,7.37-16.9,16.51-16.9s16.51,6.57,16.51,16.9-7.36,16.64-16.51,16.64S141.06,284.31,141.06,274Zm29.87,0c0-8.42-6-13.88-13.36-13.88s-13.35,5.46-13.35,13.88,6,13.48,13.35,13.48S170.93,282.41,170.93,274Z"/><path class="cls-1" d="M67.2,319.71h2.29"/></g></g></svg>