<?xml version="1.0" encoding="utf-8"?>
<!-- Generator: Adobe Illustrator 25.2.3, SVG Export Plug-In . SVG Version: 6.00 Build 0)  -->
<svg version="1.1" id="Capa_1" xmlns="http://www.w3.org/2000/svg" xmlns:xlink="http://www.w3.org/1999/xlink" x="0px" y="0px"
	 viewBox="0 0 37 40" style="enable-background:new 0 0 37 40;" xml:space="preserve">
<style type="text/css">
	.st0{clip-path:url(#SVGID_2_);}
	.st1{fill:#FDFEFE;}
	.st2{fill:#6A3381;}
</style>
<g>
	<defs>
		<rect id="SVGID_1_" width="37" height="40"/>
	</defs>
	<clipPath id="SVGID_2_">
		<use xlink:href="#SVGID_1_"  style="overflow:visible;"/>
	</clipPath>
	<g class="st0">
		<path class="st1" d="M31.9,7.5c0.5,2.1,0.6,4.1,0.4,6.3c-0.2,1.5-0.7,3.2,0.5,4.6c0.3,0.9,1.3,1.5,1.3,2.8c-2,0.4-1.4,2.7-2.5,3.7
			c-0.4,1.8,0.4,3.9-1.1,5.2c-1.5,1.3-3.5-0.2-5.2,0.1c-1.5,2.1-1,5.7,1.1,7.8c6.5-2.9,11.2-11.3,10.6-18.7c0-4.5-1.5-8.4-4.2-12
			L31.9,7.5z M20.3,21.4c-0.2,4.1-1,7.5-6.5,5.6c0,0-0.1,0-0.1,0c-1.7,1.4-1.7,4.6,0,7.3c3.4,5.5,4.9,6.4,8.1,5.1
			c-0.4-0.6-0.8-1.1-1.3-1.6c-1.6-1.9-2.9-4-2.7-6.7c0.1-1.7,0.5-2.9,2.9-2.3c2.2,0.5,4.5,0.6,4.5-2.9c0-1.1,0.5-2.5,0.8-3.7
			c0.4-1.5,1.8-2.1,2-3.5c-2.5-3.2-1.5-6.8-1.5-10.3c0-5.1-3.1-8.4-7.7-8.4C10.9,0,4.1,4.8,1.3,12.5c-2.9,7.9-0.6,17.9,5.3,22.7
			l0.2,0c-0.1-0.1-0.1-0.3-0.2-0.4C4.7,30,2.4,25.1,7.9,21c2-1.2,3.8-2.5,5.1-4.5c3.5-4.4,5.2-9.6,6.3-15.2c0.8,1.1,1.2,2.2,1.5,3.2
			c1.4,4.2-2.3,9.2,2.4,12.8l-1.9,1.3C21,19.7,21.2,20.7,20.3,21.4z"/>
		<path class="st2" d="M6.6,35.2c-5.9-4.8-8.2-14.7-5.3-22.7C4.1,4.8,10.9,0,18.8,0c4.6,0,7.7,3.2,7.7,8.4c0,3.5-1,7.2,1.5,10.3
			c-2.2,0.4-4.1,1.2-5.9,2.5c-0.5,0.3-1,0.9-1.7,0.3c0.8-0.7,0.7-1.8,1.1-2.7l1.9-1.3c-4.7-3.6-1-8.6-2.4-12.8
			c-0.4-1.1-0.7-2.2-1.5-3.2c-1.2,5.6-2.8,10.8-6.3,15.2c-2.8-1.9-5.9-0.7-7.3,2.9L7.9,21c-5.6,4.1-3.3,9-1.3,13.8
			C6.6,34.9,6.6,35.1,6.6,35.2z"/>
		<path class="st2" d="M20.3,21.4c0.7,0.7,1.2,0.1,1.7-0.3c1.8-1.2,3.8-2.1,5.9-2.5c-0.2,1.4-1.6,2-2,3.5c-0.3,1.2-0.8,2.6-0.8,3.7
			c0,3.6-2.3,3.5-4.5,2.9c-2.4-0.6-2.7,0.7-2.9,2.3c-0.2,2.6,1.1,4.7,2.7,6.7c0.4,0.5,0.8,1.1,1.3,1.6c-3.2,1.3-4.6,0.3-8.1-5.1
			c-1.7-2.7-1.7-5.9,0-7.3c0,0,0.1,0,0.1,0C19.4,28.9,20.2,25.6,20.3,21.4z"/>
		<path class="st2" d="M36.9,19.2c0.6,7.4-4.1,15.8-10.6,18.7c-2.1-2-2.7-5.7-1.1-7.8c1.7-0.3,3.7,1.2,5.2-0.1
			c1.5-1.3,0.7-3.4,1.1-5.2c1.1-1,0.5-3.3,2.5-3.7c0-1.3-1-1.8-1.3-2.8C34.3,18.2,35.5,19,36.9,19.2z"/>
		<path class="st2" d="M36.9,19.2c-1.4-0.2-2.7-1.1-4.2-0.8c-1.2-1.4-0.6-3.1-0.5-4.6c0.2-2.1,0.2-4.2-0.4-6.3l0.8-0.3
			C35.5,10.8,37,14.8,36.9,19.2z"/>
		<path class="st2" d="M7.9,21l-2.2-1.6c1.3-3.6,4.5-4.8,7.3-2.9C11.7,18.4,9.9,19.8,7.9,21z"/>
		<path class="st2" d="M32.8,7.3l-0.8,0.3L32.8,7.3z"/>
		<path class="st2" d="M6.6,35.2c0-0.1,0-0.3,0.1-0.4c0.1,0.1,0.1,0.3,0.2,0.4L6.6,35.2z"/>
	</g>
</g>
</svg>
